%TF.GenerationSoftware,KiCad,Pcbnew,(6.0.4-0)*%
%TF.CreationDate,2023-01-13T21:29:05-07:00*%
%TF.ProjectId,Gamecube_SD2SP2PRO,47616d65-6375-4626-955f-534432535032,rev?*%
%TF.SameCoordinates,Original*%
%TF.FileFunction,Copper,L1,Top*%
%TF.FilePolarity,Positive*%
%FSLAX46Y46*%
G04 Gerber Fmt 4.6, Leading zero omitted, Abs format (unit mm)*
G04 Created by KiCad (PCBNEW (6.0.4-0)) date 2023-01-13 21:29:05*
%MOMM*%
%LPD*%
G01*
G04 APERTURE LIST*
%TA.AperFunction,ComponentPad*%
%ADD10R,1.700000X1.700000*%
%TD*%
%TA.AperFunction,ComponentPad*%
%ADD11O,1.700000X1.700000*%
%TD*%
%TA.AperFunction,SMDPad,CuDef*%
%ADD12R,1.500000X7.000000*%
%TD*%
%TA.AperFunction,ViaPad*%
%ADD13C,0.800000*%
%TD*%
%TA.AperFunction,Conductor*%
%ADD14C,0.250000*%
%TD*%
G04 APERTURE END LIST*
D10*
%TO.P,J1,1,Pin_1*%
%TO.N,Net-(J1-Pad1)*%
X77160286Y-116250000D03*
D11*
%TO.P,J1,2,Pin_2*%
%TO.N,/GND*%
X77160286Y-113710000D03*
%TO.P,J1,3,Pin_3*%
%TO.N,Net-(J1-Pad3)*%
X79700286Y-116250000D03*
%TO.P,J1,4,Pin_4*%
%TO.N,Net-(J1-Pad4)*%
X79700286Y-113710000D03*
%TO.P,J1,5,Pin_5*%
%TO.N,Net-(J1-Pad5)*%
X82240286Y-116250000D03*
%TO.P,J1,6,Pin_6*%
%TO.N,Net-(J1-Pad6)*%
X82240286Y-113710000D03*
%TO.P,J1,7,Pin_7*%
%TO.N,Net-(J1-Pad7)*%
X84780286Y-116250000D03*
%TO.P,J1,8,Pin_8*%
%TO.N,Net-(J1-Pad8)*%
X84780286Y-113710000D03*
%TD*%
D12*
%TO.P,P1,2,GND*%
%TO.N,/GND*%
X97064286Y-115900000D03*
%TO.P,P1,4,CLK*%
%TO.N,Net-(J1-Pad4)*%
X95064286Y-115900000D03*
%TO.P,P1,6,DI*%
%TO.N,Net-(J1-Pad6)*%
X93064286Y-115900000D03*
%TO.P,P1,8,GND*%
%TO.N,Net-(J1-Pad8)*%
X91064286Y-115900000D03*
%TD*%
D13*
%TO.N,/GND*%
X96314286Y-102313640D03*
X82880000Y-118400000D03*
X78900000Y-111400000D03*
X108400000Y-110290800D03*
X102020000Y-117600000D03*
X89200000Y-106624500D03*
X89200000Y-109624500D03*
X108400000Y-102600000D03*
X102020000Y-102700000D03*
X76500000Y-102700000D03*
X89200000Y-103599500D03*
X89200000Y-105124500D03*
X89200000Y-111124500D03*
X89200000Y-108124500D03*
X76500000Y-118400000D03*
X76500000Y-109396549D03*
X108400000Y-117500000D03*
X82880000Y-102700000D03*
X102020000Y-110390800D03*
%TD*%
D14*
%TO.N,Net-(J1-Pad4)*%
X79700286Y-110199714D02*
X85500000Y-104400000D01*
X94915489Y-108215489D02*
X94915489Y-115751203D01*
X79700286Y-113710000D02*
X79700286Y-110199714D01*
X91100000Y-104400000D02*
X94915489Y-108215489D01*
X85500000Y-104400000D02*
X91100000Y-104400000D01*
%TO.N,Net-(J1-Pad6)*%
X93064286Y-110764286D02*
X93064286Y-115900000D01*
X82240286Y-113710000D02*
X82240286Y-111759714D01*
X86600000Y-107400000D02*
X89700000Y-107400000D01*
X89700000Y-107400000D02*
X93064286Y-110764286D01*
X82240286Y-111759714D02*
X86600000Y-107400000D01*
%TO.N,Net-(J1-Pad8)*%
X90200000Y-110400000D02*
X91064286Y-111264286D01*
X88090286Y-110400000D02*
X90200000Y-110400000D01*
X84780286Y-113710000D02*
X88090286Y-110400000D01*
X91064286Y-111264286D02*
X91064286Y-115900000D01*
%TD*%
%TA.AperFunction,Conductor*%
%TO.N,/GND*%
G36*
X109997907Y-101528502D02*
G01*
X110044400Y-101582158D01*
X110055786Y-101634500D01*
X110055786Y-119365500D01*
X110035784Y-119433621D01*
X109982128Y-119480114D01*
X109929786Y-119491500D01*
X101698786Y-119491500D01*
X101630665Y-119471498D01*
X101584172Y-119417842D01*
X101572786Y-119365500D01*
X101572786Y-113008623D01*
X101572788Y-113007853D01*
X101573086Y-112959102D01*
X101573262Y-112930279D01*
X101565136Y-112901847D01*
X101561558Y-112885085D01*
X101558638Y-112864698D01*
X101557366Y-112855813D01*
X101546737Y-112832436D01*
X101540290Y-112814913D01*
X101535702Y-112798862D01*
X101533235Y-112790229D01*
X101528442Y-112782632D01*
X101517456Y-112765220D01*
X101509316Y-112750135D01*
X101506850Y-112744711D01*
X101497078Y-112723218D01*
X101480316Y-112703765D01*
X101469213Y-112688761D01*
X101455510Y-112667042D01*
X101448785Y-112661103D01*
X101448782Y-112661099D01*
X101433348Y-112647468D01*
X101421304Y-112635276D01*
X101407859Y-112619673D01*
X101407856Y-112619671D01*
X101401999Y-112612873D01*
X101388295Y-112603990D01*
X101380451Y-112598906D01*
X101365577Y-112587615D01*
X101353069Y-112576569D01*
X101353068Y-112576568D01*
X101346335Y-112570622D01*
X101319573Y-112558057D01*
X101304595Y-112549737D01*
X101287303Y-112538529D01*
X101287298Y-112538527D01*
X101279771Y-112533648D01*
X101271178Y-112531078D01*
X101271173Y-112531076D01*
X101255166Y-112526289D01*
X101237722Y-112519628D01*
X101222610Y-112512533D01*
X101222608Y-112512532D01*
X101214486Y-112508719D01*
X101205619Y-112507338D01*
X101205618Y-112507338D01*
X101194764Y-112505648D01*
X101185269Y-112504170D01*
X101168554Y-112500387D01*
X101148820Y-112494485D01*
X101148814Y-112494484D01*
X101140220Y-112491914D01*
X101131249Y-112491859D01*
X101131248Y-112491859D01*
X101121189Y-112491798D01*
X101105780Y-112491704D01*
X101104997Y-112491671D01*
X101103900Y-112491500D01*
X101072909Y-112491500D01*
X101072139Y-112491498D01*
X100998501Y-112491048D01*
X100998500Y-112491048D01*
X100994565Y-112491024D01*
X100993221Y-112491408D01*
X100991876Y-112491500D01*
X99072909Y-112491500D01*
X99072139Y-112491498D01*
X99071323Y-112491493D01*
X98994565Y-112491024D01*
X98972204Y-112497415D01*
X98966133Y-112499150D01*
X98949371Y-112502728D01*
X98920099Y-112506920D01*
X98911931Y-112510634D01*
X98911930Y-112510634D01*
X98896724Y-112517548D01*
X98879200Y-112523996D01*
X98854515Y-112531051D01*
X98846921Y-112535843D01*
X98846918Y-112535844D01*
X98829506Y-112546830D01*
X98814423Y-112554969D01*
X98787504Y-112567208D01*
X98780702Y-112573069D01*
X98768051Y-112583970D01*
X98753047Y-112595073D01*
X98731328Y-112608776D01*
X98725389Y-112615501D01*
X98725385Y-112615504D01*
X98711754Y-112630938D01*
X98699562Y-112642982D01*
X98683959Y-112656427D01*
X98683957Y-112656430D01*
X98677159Y-112662287D01*
X98672279Y-112669816D01*
X98672278Y-112669817D01*
X98663192Y-112683835D01*
X98651901Y-112698709D01*
X98642064Y-112709848D01*
X98634908Y-112717951D01*
X98628598Y-112731391D01*
X98622344Y-112744711D01*
X98614023Y-112759691D01*
X98602815Y-112776983D01*
X98602813Y-112776988D01*
X98597934Y-112784515D01*
X98595364Y-112793108D01*
X98595362Y-112793113D01*
X98590575Y-112809120D01*
X98583914Y-112826564D01*
X98576819Y-112841676D01*
X98573005Y-112849800D01*
X98571624Y-112858667D01*
X98568999Y-112867254D01*
X98565707Y-112866248D01*
X98542532Y-112915453D01*
X98482359Y-112953131D01*
X98411367Y-112952296D01*
X98352096Y-112913212D01*
X98323365Y-112848289D01*
X98322285Y-112831826D01*
X98322285Y-112355331D01*
X98321915Y-112348510D01*
X98316391Y-112297648D01*
X98312765Y-112282396D01*
X98267610Y-112161946D01*
X98259072Y-112146351D01*
X98182571Y-112044276D01*
X98170010Y-112031715D01*
X98067935Y-111955214D01*
X98052340Y-111946676D01*
X97931892Y-111901522D01*
X97916637Y-111897895D01*
X97865772Y-111892369D01*
X97858958Y-111892000D01*
X97336401Y-111892000D01*
X97321162Y-111896475D01*
X97319957Y-111897865D01*
X97318286Y-111905548D01*
X97318286Y-116028000D01*
X97298284Y-116096121D01*
X97244628Y-116142614D01*
X97192286Y-116154000D01*
X96936286Y-116154000D01*
X96868165Y-116133998D01*
X96821672Y-116080342D01*
X96810286Y-116028000D01*
X96810286Y-111910116D01*
X96805811Y-111894877D01*
X96804421Y-111893672D01*
X96796738Y-111892001D01*
X96269617Y-111892001D01*
X96262796Y-111892371D01*
X96211934Y-111897895D01*
X96196680Y-111901522D01*
X96109227Y-111934306D01*
X96038420Y-111939489D01*
X96020769Y-111934306D01*
X95932004Y-111901029D01*
X95931998Y-111901027D01*
X95924602Y-111898255D01*
X95862420Y-111891500D01*
X95674989Y-111891500D01*
X95606868Y-111871498D01*
X95560375Y-111817842D01*
X95548989Y-111765500D01*
X95548989Y-108294256D01*
X95549516Y-108283073D01*
X95551191Y-108275580D01*
X95549051Y-108207503D01*
X95548989Y-108203544D01*
X95548989Y-108175633D01*
X95548484Y-108171633D01*
X95547551Y-108159790D01*
X95546411Y-108123518D01*
X95546162Y-108115599D01*
X95540511Y-108096147D01*
X95536503Y-108076795D01*
X95534956Y-108064552D01*
X95533963Y-108056692D01*
X95524781Y-108033500D01*
X95517689Y-108015586D01*
X95513844Y-108004359D01*
X95513210Y-108002176D01*
X95501507Y-107961896D01*
X95497473Y-107955074D01*
X95497470Y-107955068D01*
X95491195Y-107944457D01*
X95482499Y-107926707D01*
X95477961Y-107915245D01*
X95477958Y-107915240D01*
X95475041Y-107907872D01*
X95449062Y-107872114D01*
X95442546Y-107862196D01*
X95424064Y-107830946D01*
X95420031Y-107824126D01*
X95405707Y-107809802D01*
X95392865Y-107794767D01*
X95380961Y-107778382D01*
X95346895Y-107750200D01*
X95338116Y-107742211D01*
X91603652Y-104007747D01*
X91596112Y-103999461D01*
X91592000Y-103992982D01*
X91542348Y-103946356D01*
X91539507Y-103943602D01*
X91519770Y-103923865D01*
X91516573Y-103921385D01*
X91507551Y-103913680D01*
X91494116Y-103901064D01*
X91475321Y-103883414D01*
X91468375Y-103879595D01*
X91468372Y-103879593D01*
X91457566Y-103873652D01*
X91441047Y-103862801D01*
X91440583Y-103862441D01*
X91425041Y-103850386D01*
X91417772Y-103847241D01*
X91417768Y-103847238D01*
X91384463Y-103832826D01*
X91373813Y-103827609D01*
X91335060Y-103806305D01*
X91315437Y-103801267D01*
X91296734Y-103794863D01*
X91285420Y-103789967D01*
X91285419Y-103789967D01*
X91278145Y-103786819D01*
X91270322Y-103785580D01*
X91270312Y-103785577D01*
X91234476Y-103779901D01*
X91222856Y-103777495D01*
X91187711Y-103768472D01*
X91187710Y-103768472D01*
X91180030Y-103766500D01*
X91159776Y-103766500D01*
X91140065Y-103764949D01*
X91127886Y-103763020D01*
X91120057Y-103761780D01*
X91090786Y-103764547D01*
X91076039Y-103765941D01*
X91064181Y-103766500D01*
X85578767Y-103766500D01*
X85567584Y-103765973D01*
X85560091Y-103764298D01*
X85552165Y-103764547D01*
X85552164Y-103764547D01*
X85492014Y-103766438D01*
X85488055Y-103766500D01*
X85460144Y-103766500D01*
X85456210Y-103766997D01*
X85456209Y-103766997D01*
X85456144Y-103767005D01*
X85444307Y-103767938D01*
X85412490Y-103768938D01*
X85408029Y-103769078D01*
X85400110Y-103769327D01*
X85382454Y-103774456D01*
X85380658Y-103774978D01*
X85361306Y-103778986D01*
X85354235Y-103779880D01*
X85341203Y-103781526D01*
X85333834Y-103784443D01*
X85333832Y-103784444D01*
X85300097Y-103797800D01*
X85288869Y-103801645D01*
X85246407Y-103813982D01*
X85239585Y-103818016D01*
X85239579Y-103818019D01*
X85228968Y-103824294D01*
X85211218Y-103832990D01*
X85199756Y-103837528D01*
X85199751Y-103837531D01*
X85192383Y-103840448D01*
X85174970Y-103853099D01*
X85156625Y-103866427D01*
X85146707Y-103872943D01*
X85135463Y-103879593D01*
X85108637Y-103895458D01*
X85094313Y-103909782D01*
X85079281Y-103922621D01*
X85062893Y-103934528D01*
X85034712Y-103968593D01*
X85026722Y-103977373D01*
X79308033Y-109696062D01*
X79299747Y-109703602D01*
X79293268Y-109707714D01*
X79287843Y-109713491D01*
X79246643Y-109757365D01*
X79243888Y-109760207D01*
X79224151Y-109779944D01*
X79221671Y-109783141D01*
X79213968Y-109792161D01*
X79183700Y-109824393D01*
X79179881Y-109831339D01*
X79179879Y-109831342D01*
X79173938Y-109842148D01*
X79163087Y-109858667D01*
X79150672Y-109874673D01*
X79147527Y-109881942D01*
X79147524Y-109881946D01*
X79133112Y-109915251D01*
X79127895Y-109925901D01*
X79106591Y-109964654D01*
X79104620Y-109972329D01*
X79104620Y-109972330D01*
X79101553Y-109984276D01*
X79095149Y-110002980D01*
X79087105Y-110021569D01*
X79085866Y-110029392D01*
X79085863Y-110029402D01*
X79080187Y-110065238D01*
X79077781Y-110076858D01*
X79066786Y-110119684D01*
X79066786Y-110139938D01*
X79065235Y-110159648D01*
X79062066Y-110179657D01*
X79062812Y-110187549D01*
X79066227Y-110223675D01*
X79066786Y-110235533D01*
X79066786Y-112431692D01*
X79046784Y-112499813D01*
X78998969Y-112543453D01*
X78973893Y-112556507D01*
X78969760Y-112559610D01*
X78969757Y-112559612D01*
X78799386Y-112687530D01*
X78795251Y-112690635D01*
X78791679Y-112694373D01*
X78645210Y-112847644D01*
X78640915Y-112852138D01*
X78638006Y-112856403D01*
X78638000Y-112856411D01*
X78625690Y-112874457D01*
X78533490Y-113009618D01*
X78533184Y-113010066D01*
X78478273Y-113055069D01*
X78407748Y-113063240D01*
X78344001Y-113031986D01*
X78323304Y-113007502D01*
X78242712Y-112882926D01*
X78236422Y-112874757D01*
X78093092Y-112717240D01*
X78085559Y-112710215D01*
X77918425Y-112578222D01*
X77909838Y-112572517D01*
X77723403Y-112469599D01*
X77713991Y-112465369D01*
X77513245Y-112394280D01*
X77503274Y-112391646D01*
X77432123Y-112378972D01*
X77418826Y-112380432D01*
X77414286Y-112394989D01*
X77414286Y-113838000D01*
X77394284Y-113906121D01*
X77340628Y-113952614D01*
X77288286Y-113964000D01*
X75843511Y-113964000D01*
X75829980Y-113967973D01*
X75828543Y-113977966D01*
X75858851Y-114112446D01*
X75861931Y-114122275D01*
X75942056Y-114319603D01*
X75946699Y-114328794D01*
X76057980Y-114510388D01*
X76064063Y-114518699D01*
X76203499Y-114679667D01*
X76210863Y-114686879D01*
X76215808Y-114690985D01*
X76255442Y-114749889D01*
X76256939Y-114820870D01*
X76219823Y-114881392D01*
X76179550Y-114905910D01*
X76071991Y-114946232D01*
X76071990Y-114946233D01*
X76063581Y-114949385D01*
X75947025Y-115036739D01*
X75859671Y-115153295D01*
X75808541Y-115289684D01*
X75801786Y-115351866D01*
X75801786Y-117148134D01*
X75808541Y-117210316D01*
X75859671Y-117346705D01*
X75947025Y-117463261D01*
X76063581Y-117550615D01*
X76199970Y-117601745D01*
X76262152Y-117608500D01*
X78058420Y-117608500D01*
X78120602Y-117601745D01*
X78256991Y-117550615D01*
X78373547Y-117463261D01*
X78460901Y-117346705D01*
X78483085Y-117287529D01*
X78504884Y-117229382D01*
X78547526Y-117172618D01*
X78614088Y-117147918D01*
X78683436Y-117163126D01*
X78718103Y-117191114D01*
X78746536Y-117223938D01*
X78918412Y-117366632D01*
X79111286Y-117479338D01*
X79319978Y-117559030D01*
X79325046Y-117560061D01*
X79325049Y-117560062D01*
X79432303Y-117581883D01*
X79538883Y-117603567D01*
X79544058Y-117603757D01*
X79544060Y-117603757D01*
X79756959Y-117611564D01*
X79756963Y-117611564D01*
X79762123Y-117611753D01*
X79767243Y-117611097D01*
X79767245Y-117611097D01*
X79978574Y-117584025D01*
X79978575Y-117584025D01*
X79983702Y-117583368D01*
X79988652Y-117581883D01*
X80192715Y-117520661D01*
X80192720Y-117520659D01*
X80197670Y-117519174D01*
X80398280Y-117420896D01*
X80580146Y-117291173D01*
X80738382Y-117133489D01*
X80868739Y-116952077D01*
X80870062Y-116953028D01*
X80916931Y-116909857D01*
X80986866Y-116897625D01*
X81052312Y-116925144D01*
X81080161Y-116956994D01*
X81140273Y-117055088D01*
X81286536Y-117223938D01*
X81458412Y-117366632D01*
X81651286Y-117479338D01*
X81859978Y-117559030D01*
X81865046Y-117560061D01*
X81865049Y-117560062D01*
X81972303Y-117581883D01*
X82078883Y-117603567D01*
X82084058Y-117603757D01*
X82084060Y-117603757D01*
X82296959Y-117611564D01*
X82296963Y-117611564D01*
X82302123Y-117611753D01*
X82307243Y-117611097D01*
X82307245Y-117611097D01*
X82518574Y-117584025D01*
X82518575Y-117584025D01*
X82523702Y-117583368D01*
X82528652Y-117581883D01*
X82732715Y-117520661D01*
X82732720Y-117520659D01*
X82737670Y-117519174D01*
X82938280Y-117420896D01*
X83120146Y-117291173D01*
X83278382Y-117133489D01*
X83408739Y-116952077D01*
X83410062Y-116953028D01*
X83456931Y-116909857D01*
X83526866Y-116897625D01*
X83592312Y-116925144D01*
X83620161Y-116956994D01*
X83680273Y-117055088D01*
X83826536Y-117223938D01*
X83998412Y-117366632D01*
X84191286Y-117479338D01*
X84399978Y-117559030D01*
X84405046Y-117560061D01*
X84405049Y-117560062D01*
X84512303Y-117581883D01*
X84618883Y-117603567D01*
X84624058Y-117603757D01*
X84624060Y-117603757D01*
X84836959Y-117611564D01*
X84836963Y-117611564D01*
X84842123Y-117611753D01*
X84847243Y-117611097D01*
X84847245Y-117611097D01*
X85058574Y-117584025D01*
X85058575Y-117584025D01*
X85063702Y-117583368D01*
X85068652Y-117581883D01*
X85272715Y-117520661D01*
X85272720Y-117520659D01*
X85277670Y-117519174D01*
X85478280Y-117420896D01*
X85660146Y-117291173D01*
X85818382Y-117133489D01*
X85948739Y-116952077D01*
X85969606Y-116909857D01*
X86045422Y-116756453D01*
X86045423Y-116756451D01*
X86047716Y-116751811D01*
X86112656Y-116538069D01*
X86141815Y-116316590D01*
X86143442Y-116250000D01*
X86125138Y-116027361D01*
X86070717Y-115810702D01*
X85981640Y-115605840D01*
X85860300Y-115418277D01*
X85709956Y-115253051D01*
X85705905Y-115249852D01*
X85705901Y-115249848D01*
X85538700Y-115117800D01*
X85538696Y-115117798D01*
X85534645Y-115114598D01*
X85493339Y-115091796D01*
X85443370Y-115041364D01*
X85428598Y-114971921D01*
X85453714Y-114905516D01*
X85481066Y-114878909D01*
X85524889Y-114847650D01*
X85660146Y-114751173D01*
X85685192Y-114726215D01*
X85814721Y-114597137D01*
X85818382Y-114593489D01*
X85948739Y-114412077D01*
X85962281Y-114384678D01*
X86045422Y-114216453D01*
X86045423Y-114216451D01*
X86047716Y-114211811D01*
X86112656Y-113998069D01*
X86141815Y-113776590D01*
X86143442Y-113710000D01*
X86125138Y-113487361D01*
X86097107Y-113375765D01*
X86099911Y-113304823D01*
X86130216Y-113255974D01*
X88315786Y-111070405D01*
X88378098Y-111036379D01*
X88404881Y-111033500D01*
X89885405Y-111033500D01*
X89953526Y-111053502D01*
X89974501Y-111070405D01*
X90393882Y-111489787D01*
X90427907Y-111552099D01*
X90430786Y-111578882D01*
X90430786Y-111765500D01*
X90410784Y-111833621D01*
X90357128Y-111880114D01*
X90304786Y-111891500D01*
X90266152Y-111891500D01*
X90203970Y-111898255D01*
X90067581Y-111949385D01*
X89951025Y-112036739D01*
X89863671Y-112153295D01*
X89812541Y-112289684D01*
X89805786Y-112351866D01*
X89805786Y-112365500D01*
X89785784Y-112433621D01*
X89732128Y-112480114D01*
X89679786Y-112491500D01*
X88072909Y-112491500D01*
X88072139Y-112491498D01*
X88071323Y-112491493D01*
X87994565Y-112491024D01*
X87972204Y-112497415D01*
X87966133Y-112499150D01*
X87949371Y-112502728D01*
X87920099Y-112506920D01*
X87911931Y-112510634D01*
X87911930Y-112510634D01*
X87896724Y-112517548D01*
X87879200Y-112523996D01*
X87854515Y-112531051D01*
X87846921Y-112535843D01*
X87846918Y-112535844D01*
X87829506Y-112546830D01*
X87814423Y-112554969D01*
X87787504Y-112567208D01*
X87780702Y-112573069D01*
X87768051Y-112583970D01*
X87753047Y-112595073D01*
X87731328Y-112608776D01*
X87725389Y-112615501D01*
X87725385Y-112615504D01*
X87711754Y-112630938D01*
X87699562Y-112642982D01*
X87683959Y-112656427D01*
X87683957Y-112656430D01*
X87677159Y-112662287D01*
X87672279Y-112669816D01*
X87672278Y-112669817D01*
X87663192Y-112683835D01*
X87651901Y-112698709D01*
X87642064Y-112709848D01*
X87634908Y-112717951D01*
X87628598Y-112731391D01*
X87622344Y-112744711D01*
X87614023Y-112759691D01*
X87602815Y-112776983D01*
X87602813Y-112776988D01*
X87597934Y-112784515D01*
X87595364Y-112793108D01*
X87595362Y-112793113D01*
X87590575Y-112809120D01*
X87583914Y-112826564D01*
X87576819Y-112841676D01*
X87573005Y-112849800D01*
X87571624Y-112858667D01*
X87571624Y-112858668D01*
X87568456Y-112879015D01*
X87564673Y-112895732D01*
X87558771Y-112915466D01*
X87558770Y-112915472D01*
X87556200Y-112924066D01*
X87556023Y-112953131D01*
X87555990Y-112958497D01*
X87555957Y-112959289D01*
X87555786Y-112960386D01*
X87555786Y-112991377D01*
X87555784Y-112992147D01*
X87555400Y-113055069D01*
X87555310Y-113069721D01*
X87555694Y-113071065D01*
X87555786Y-113072410D01*
X87555786Y-119365500D01*
X87535784Y-119433621D01*
X87482128Y-119480114D01*
X87429786Y-119491500D01*
X74698786Y-119491500D01*
X74630665Y-119471498D01*
X74584172Y-119417842D01*
X74572786Y-119365500D01*
X74572786Y-113444183D01*
X75824675Y-113444183D01*
X75826198Y-113452607D01*
X75838578Y-113456000D01*
X76888171Y-113456000D01*
X76903410Y-113451525D01*
X76904615Y-113450135D01*
X76906286Y-113442452D01*
X76906286Y-112393102D01*
X76902368Y-112379758D01*
X76888092Y-112377771D01*
X76849610Y-112383660D01*
X76839574Y-112386051D01*
X76637154Y-112452212D01*
X76627645Y-112456209D01*
X76438749Y-112554542D01*
X76430024Y-112560036D01*
X76259719Y-112687905D01*
X76252012Y-112694748D01*
X76104876Y-112848717D01*
X76098390Y-112856727D01*
X75978384Y-113032649D01*
X75973286Y-113041623D01*
X75883624Y-113234783D01*
X75880061Y-113244470D01*
X75824675Y-113444183D01*
X74572786Y-113444183D01*
X74572786Y-101634500D01*
X74592788Y-101566379D01*
X74646444Y-101519886D01*
X74698786Y-101508500D01*
X109929786Y-101508500D01*
X109997907Y-101528502D01*
G37*
%TD.AperFunction*%
%TA.AperFunction,Conductor*%
G36*
X89453527Y-108053502D02*
G01*
X89474501Y-108070405D01*
X92393881Y-110989786D01*
X92427907Y-111052098D01*
X92430786Y-111078881D01*
X92430786Y-111765500D01*
X92410784Y-111833621D01*
X92357128Y-111880114D01*
X92304786Y-111891500D01*
X92266152Y-111891500D01*
X92203970Y-111898255D01*
X92196574Y-111901027D01*
X92196568Y-111901029D01*
X92108515Y-111934039D01*
X92037708Y-111939222D01*
X92020057Y-111934039D01*
X91932004Y-111901029D01*
X91931998Y-111901027D01*
X91924602Y-111898255D01*
X91862420Y-111891500D01*
X91823786Y-111891500D01*
X91755665Y-111871498D01*
X91709172Y-111817842D01*
X91697786Y-111765500D01*
X91697786Y-111343053D01*
X91698313Y-111331870D01*
X91699988Y-111324377D01*
X91697848Y-111256300D01*
X91697786Y-111252341D01*
X91697786Y-111224430D01*
X91697281Y-111220430D01*
X91696348Y-111208587D01*
X91695208Y-111172316D01*
X91694959Y-111164397D01*
X91689307Y-111144943D01*
X91685299Y-111125586D01*
X91683754Y-111113356D01*
X91683754Y-111113355D01*
X91682760Y-111105489D01*
X91679841Y-111098116D01*
X91666482Y-111064374D01*
X91662637Y-111053144D01*
X91652515Y-111018303D01*
X91652515Y-111018302D01*
X91650304Y-111010693D01*
X91646271Y-111003874D01*
X91646269Y-111003869D01*
X91639993Y-110993258D01*
X91631298Y-110975510D01*
X91623838Y-110956669D01*
X91597850Y-110920899D01*
X91591334Y-110910979D01*
X91572866Y-110879751D01*
X91572864Y-110879748D01*
X91568828Y-110872924D01*
X91554507Y-110858603D01*
X91541666Y-110843569D01*
X91534417Y-110833592D01*
X91529758Y-110827179D01*
X91523653Y-110822128D01*
X91523648Y-110822123D01*
X91495682Y-110798987D01*
X91486904Y-110790999D01*
X90703652Y-110007747D01*
X90696112Y-109999461D01*
X90692000Y-109992982D01*
X90642348Y-109946356D01*
X90639507Y-109943602D01*
X90619770Y-109923865D01*
X90616573Y-109921385D01*
X90607551Y-109913680D01*
X90594122Y-109901069D01*
X90575321Y-109883414D01*
X90568375Y-109879595D01*
X90568372Y-109879593D01*
X90557566Y-109873652D01*
X90541047Y-109862801D01*
X90535717Y-109858667D01*
X90525041Y-109850386D01*
X90517772Y-109847241D01*
X90517768Y-109847238D01*
X90484463Y-109832826D01*
X90473813Y-109827609D01*
X90435060Y-109806305D01*
X90415437Y-109801267D01*
X90396734Y-109794863D01*
X90385420Y-109789967D01*
X90385419Y-109789967D01*
X90378145Y-109786819D01*
X90370322Y-109785580D01*
X90370312Y-109785577D01*
X90334476Y-109779901D01*
X90322856Y-109777495D01*
X90287711Y-109768472D01*
X90287710Y-109768472D01*
X90280030Y-109766500D01*
X90259776Y-109766500D01*
X90240065Y-109764949D01*
X90227886Y-109763020D01*
X90220057Y-109761780D01*
X90190786Y-109764547D01*
X90176039Y-109765941D01*
X90164181Y-109766500D01*
X88169053Y-109766500D01*
X88157870Y-109765973D01*
X88150377Y-109764298D01*
X88142451Y-109764547D01*
X88142450Y-109764547D01*
X88082287Y-109766438D01*
X88078329Y-109766500D01*
X88050430Y-109766500D01*
X88046440Y-109767004D01*
X88034606Y-109767936D01*
X87990397Y-109769326D01*
X87982783Y-109771538D01*
X87982778Y-109771539D01*
X87970945Y-109774977D01*
X87951582Y-109778988D01*
X87931489Y-109781526D01*
X87924122Y-109784443D01*
X87924117Y-109784444D01*
X87890378Y-109797802D01*
X87879151Y-109801646D01*
X87836693Y-109813982D01*
X87829867Y-109818019D01*
X87819258Y-109824293D01*
X87801510Y-109832988D01*
X87782669Y-109840448D01*
X87776253Y-109845110D01*
X87776252Y-109845110D01*
X87746899Y-109866436D01*
X87736979Y-109872952D01*
X87705751Y-109891420D01*
X87705748Y-109891422D01*
X87698924Y-109895458D01*
X87684603Y-109909779D01*
X87669570Y-109922619D01*
X87653179Y-109934528D01*
X87644503Y-109945016D01*
X87624988Y-109968605D01*
X87616998Y-109977384D01*
X85237631Y-112356750D01*
X85175319Y-112390776D01*
X85126440Y-112391702D01*
X84913659Y-112353800D01*
X84913653Y-112353799D01*
X84908570Y-112352894D01*
X84834738Y-112351992D01*
X84690367Y-112350228D01*
X84690365Y-112350228D01*
X84685197Y-112350165D01*
X84464377Y-112383955D01*
X84252042Y-112453357D01*
X84200642Y-112480114D01*
X84078261Y-112543822D01*
X84053893Y-112556507D01*
X84049760Y-112559610D01*
X84049757Y-112559612D01*
X83879386Y-112687530D01*
X83875251Y-112690635D01*
X83871679Y-112694373D01*
X83725210Y-112847644D01*
X83720915Y-112852138D01*
X83613487Y-113009621D01*
X83558579Y-113054621D01*
X83488054Y-113062792D01*
X83424307Y-113031538D01*
X83403610Y-113007054D01*
X83323108Y-112882617D01*
X83323106Y-112882614D01*
X83320300Y-112878277D01*
X83169956Y-112713051D01*
X83165905Y-112709852D01*
X83165901Y-112709848D01*
X82998700Y-112577800D01*
X82998696Y-112577798D01*
X82994645Y-112574598D01*
X82990121Y-112572101D01*
X82990117Y-112572098D01*
X82938894Y-112543822D01*
X82888922Y-112493390D01*
X82873786Y-112433513D01*
X82873786Y-112074308D01*
X82893788Y-112006187D01*
X82910691Y-111985213D01*
X86825499Y-108070405D01*
X86887811Y-108036379D01*
X86914594Y-108033500D01*
X89385406Y-108033500D01*
X89453527Y-108053502D01*
G37*
%TD.AperFunction*%
%TA.AperFunction,Conductor*%
G36*
X90853527Y-105053502D02*
G01*
X90874501Y-105070405D01*
X94245084Y-108440988D01*
X94279110Y-108503300D01*
X94281989Y-108530083D01*
X94281989Y-111781679D01*
X94261987Y-111849800D01*
X94208331Y-111896293D01*
X94200219Y-111899661D01*
X94108516Y-111934039D01*
X94037708Y-111939222D01*
X94020057Y-111934039D01*
X93932004Y-111901029D01*
X93931998Y-111901027D01*
X93924602Y-111898255D01*
X93862420Y-111891500D01*
X93823786Y-111891500D01*
X93755665Y-111871498D01*
X93709172Y-111817842D01*
X93697786Y-111765500D01*
X93697786Y-110843053D01*
X93698313Y-110831870D01*
X93699988Y-110824377D01*
X93697848Y-110756286D01*
X93697786Y-110752329D01*
X93697786Y-110724430D01*
X93697282Y-110720439D01*
X93696349Y-110708597D01*
X93695209Y-110672322D01*
X93694960Y-110664397D01*
X93692748Y-110656783D01*
X93692747Y-110656778D01*
X93689309Y-110644945D01*
X93685298Y-110625581D01*
X93683753Y-110613350D01*
X93682760Y-110605489D01*
X93679843Y-110598122D01*
X93679842Y-110598117D01*
X93666484Y-110564378D01*
X93662640Y-110553151D01*
X93652516Y-110518308D01*
X93650304Y-110510693D01*
X93639993Y-110493258D01*
X93631298Y-110475510D01*
X93623838Y-110456669D01*
X93597850Y-110420899D01*
X93591334Y-110410979D01*
X93572866Y-110379751D01*
X93572864Y-110379748D01*
X93568828Y-110372924D01*
X93554507Y-110358603D01*
X93541666Y-110343569D01*
X93534417Y-110333592D01*
X93529758Y-110327179D01*
X93495681Y-110298988D01*
X93486902Y-110290998D01*
X90203652Y-107007747D01*
X90196112Y-106999461D01*
X90192000Y-106992982D01*
X90142348Y-106946356D01*
X90139507Y-106943602D01*
X90119770Y-106923865D01*
X90116573Y-106921385D01*
X90107551Y-106913680D01*
X90103397Y-106909779D01*
X90075321Y-106883414D01*
X90068375Y-106879595D01*
X90068372Y-106879593D01*
X90057566Y-106873652D01*
X90041047Y-106862801D01*
X90040583Y-106862441D01*
X90025041Y-106850386D01*
X90017772Y-106847241D01*
X90017768Y-106847238D01*
X89984463Y-106832826D01*
X89973813Y-106827609D01*
X89935060Y-106806305D01*
X89915437Y-106801267D01*
X89896734Y-106794863D01*
X89885420Y-106789967D01*
X89885419Y-106789967D01*
X89878145Y-106786819D01*
X89870322Y-106785580D01*
X89870312Y-106785577D01*
X89834476Y-106779901D01*
X89822856Y-106777495D01*
X89787711Y-106768472D01*
X89787710Y-106768472D01*
X89780030Y-106766500D01*
X89759776Y-106766500D01*
X89740065Y-106764949D01*
X89727886Y-106763020D01*
X89720057Y-106761780D01*
X89690786Y-106764547D01*
X89676039Y-106765941D01*
X89664181Y-106766500D01*
X86678768Y-106766500D01*
X86667585Y-106765973D01*
X86660092Y-106764298D01*
X86652166Y-106764547D01*
X86652165Y-106764547D01*
X86592002Y-106766438D01*
X86588044Y-106766500D01*
X86560144Y-106766500D01*
X86556154Y-106767004D01*
X86544320Y-106767936D01*
X86500111Y-106769326D01*
X86492495Y-106771539D01*
X86492493Y-106771539D01*
X86480652Y-106774979D01*
X86461293Y-106778988D01*
X86459983Y-106779154D01*
X86441203Y-106781526D01*
X86433837Y-106784442D01*
X86433831Y-106784444D01*
X86400098Y-106797800D01*
X86388868Y-106801645D01*
X86372828Y-106806305D01*
X86346407Y-106813981D01*
X86339584Y-106818016D01*
X86328966Y-106824295D01*
X86311213Y-106832992D01*
X86303568Y-106836019D01*
X86292383Y-106840448D01*
X86278705Y-106850386D01*
X86256612Y-106866437D01*
X86246695Y-106872951D01*
X86208638Y-106895458D01*
X86194317Y-106909779D01*
X86179284Y-106922619D01*
X86162893Y-106934528D01*
X86154217Y-106945016D01*
X86134702Y-106968605D01*
X86126712Y-106977384D01*
X81848033Y-111256062D01*
X81839747Y-111263602D01*
X81833268Y-111267714D01*
X81827843Y-111273491D01*
X81786643Y-111317365D01*
X81783888Y-111320207D01*
X81764151Y-111339944D01*
X81761671Y-111343141D01*
X81753968Y-111352161D01*
X81723700Y-111384393D01*
X81719881Y-111391339D01*
X81719879Y-111391342D01*
X81713938Y-111402148D01*
X81703087Y-111418667D01*
X81690672Y-111434673D01*
X81687527Y-111441942D01*
X81687524Y-111441946D01*
X81673112Y-111475251D01*
X81667895Y-111485901D01*
X81646591Y-111524654D01*
X81644620Y-111532329D01*
X81644620Y-111532330D01*
X81641553Y-111544276D01*
X81635149Y-111562980D01*
X81627105Y-111581569D01*
X81625866Y-111589392D01*
X81625863Y-111589402D01*
X81620187Y-111625238D01*
X81617781Y-111636858D01*
X81606786Y-111679684D01*
X81606786Y-111699938D01*
X81605235Y-111719648D01*
X81602066Y-111739657D01*
X81602812Y-111747549D01*
X81606227Y-111783675D01*
X81606786Y-111795533D01*
X81606786Y-112431692D01*
X81586784Y-112499813D01*
X81538969Y-112543453D01*
X81513893Y-112556507D01*
X81509760Y-112559610D01*
X81509757Y-112559612D01*
X81339386Y-112687530D01*
X81335251Y-112690635D01*
X81331679Y-112694373D01*
X81185210Y-112847644D01*
X81180915Y-112852138D01*
X81073487Y-113009621D01*
X81018579Y-113054621D01*
X80948054Y-113062792D01*
X80884307Y-113031538D01*
X80863610Y-113007054D01*
X80783108Y-112882617D01*
X80783106Y-112882614D01*
X80780300Y-112878277D01*
X80629956Y-112713051D01*
X80625905Y-112709852D01*
X80625901Y-112709848D01*
X80458700Y-112577800D01*
X80458696Y-112577798D01*
X80454645Y-112574598D01*
X80450121Y-112572101D01*
X80450117Y-112572098D01*
X80398894Y-112543822D01*
X80348922Y-112493390D01*
X80333786Y-112433513D01*
X80333786Y-110514308D01*
X80353788Y-110446187D01*
X80370691Y-110425213D01*
X85725499Y-105070405D01*
X85787811Y-105036379D01*
X85814594Y-105033500D01*
X90785406Y-105033500D01*
X90853527Y-105053502D01*
G37*
%TD.AperFunction*%
%TD*%
M02*
