%TF.GenerationSoftware,KiCad,Pcbnew,(6.0.4-0)*%
%TF.CreationDate,2023-01-13T21:29:05-07:00*%
%TF.ProjectId,Gamecube_SD2SP2PRO,47616d65-6375-4626-955f-534432535032,rev?*%
%TF.SameCoordinates,Original*%
%TF.FileFunction,Legend,Top*%
%TF.FilePolarity,Positive*%
%FSLAX46Y46*%
G04 Gerber Fmt 4.6, Leading zero omitted, Abs format (unit mm)*
G04 Created by KiCad (PCBNEW (6.0.4-0)) date 2023-01-13 21:29:05*
%MOMM*%
%LPD*%
G01*
G04 APERTURE LIST*
G04 Aperture macros list*
%AMRoundRect*
0 Rectangle with rounded corners*
0 $1 Rounding radius*
0 $2 $3 $4 $5 $6 $7 $8 $9 X,Y pos of 4 corners*
0 Add a 4 corners polygon primitive as box body*
4,1,4,$2,$3,$4,$5,$6,$7,$8,$9,$2,$3,0*
0 Add four circle primitives for the rounded corners*
1,1,$1+$1,$2,$3*
1,1,$1+$1,$4,$5*
1,1,$1+$1,$6,$7*
1,1,$1+$1,$8,$9*
0 Add four rect primitives between the rounded corners*
20,1,$1+$1,$2,$3,$4,$5,0*
20,1,$1+$1,$4,$5,$6,$7,0*
20,1,$1+$1,$6,$7,$8,$9,0*
20,1,$1+$1,$8,$9,$2,$3,0*%
G04 Aperture macros list end*
%ADD10C,0.300000*%
%ADD11C,0.120000*%
%ADD12RoundRect,0.200000X0.850000X-0.850000X0.850000X0.850000X-0.850000X0.850000X-0.850000X-0.850000X0*%
%ADD13O,2.100000X2.100000*%
%ADD14RoundRect,0.200000X0.750000X3.500000X-0.750000X3.500000X-0.750000X-3.500000X0.750000X-3.500000X0*%
G04 APERTURE END LIST*
D10*
X78428571Y-101378571D02*
X79285714Y-101378571D01*
X78857142Y-102878571D02*
X78857142Y-101378571D01*
X79785714Y-102878571D02*
X79785714Y-101378571D01*
X79785714Y-102092857D02*
X80642857Y-102092857D01*
X80642857Y-102878571D02*
X80642857Y-101378571D01*
X81357142Y-102878571D02*
X81357142Y-101378571D01*
X82000000Y-102807142D02*
X82214285Y-102878571D01*
X82571428Y-102878571D01*
X82714285Y-102807142D01*
X82785714Y-102735714D01*
X82857142Y-102592857D01*
X82857142Y-102450000D01*
X82785714Y-102307142D01*
X82714285Y-102235714D01*
X82571428Y-102164285D01*
X82285714Y-102092857D01*
X82142857Y-102021428D01*
X82071428Y-101950000D01*
X82000000Y-101807142D01*
X82000000Y-101664285D01*
X82071428Y-101521428D01*
X82142857Y-101450000D01*
X82285714Y-101378571D01*
X82642857Y-101378571D01*
X82857142Y-101450000D01*
X84571428Y-102807142D02*
X84785714Y-102878571D01*
X85142857Y-102878571D01*
X85285714Y-102807142D01*
X85357142Y-102735714D01*
X85428571Y-102592857D01*
X85428571Y-102450000D01*
X85357142Y-102307142D01*
X85285714Y-102235714D01*
X85142857Y-102164285D01*
X84857142Y-102092857D01*
X84714285Y-102021428D01*
X84642857Y-101950000D01*
X84571428Y-101807142D01*
X84571428Y-101664285D01*
X84642857Y-101521428D01*
X84714285Y-101450000D01*
X84857142Y-101378571D01*
X85214285Y-101378571D01*
X85428571Y-101450000D01*
X86071428Y-102878571D02*
X86071428Y-101378571D01*
X86785714Y-102878571D02*
X86785714Y-101378571D01*
X87142857Y-101378571D01*
X87357142Y-101450000D01*
X87500000Y-101592857D01*
X87571428Y-101735714D01*
X87642857Y-102021428D01*
X87642857Y-102235714D01*
X87571428Y-102521428D01*
X87500000Y-102664285D01*
X87357142Y-102807142D01*
X87142857Y-102878571D01*
X86785714Y-102878571D01*
X88285714Y-102092857D02*
X88785714Y-102092857D01*
X89000000Y-102878571D02*
X88285714Y-102878571D01*
X88285714Y-101378571D01*
X89000000Y-101378571D01*
X91285714Y-102092857D02*
X90785714Y-102092857D01*
X90785714Y-102878571D02*
X90785714Y-101378571D01*
X91500000Y-101378571D01*
X92000000Y-102450000D02*
X92714285Y-102450000D01*
X91857142Y-102878571D02*
X92357142Y-101378571D01*
X92857142Y-102878571D01*
X94214285Y-102735714D02*
X94142857Y-102807142D01*
X93928571Y-102878571D01*
X93785714Y-102878571D01*
X93571428Y-102807142D01*
X93428571Y-102664285D01*
X93357142Y-102521428D01*
X93285714Y-102235714D01*
X93285714Y-102021428D01*
X93357142Y-101735714D01*
X93428571Y-101592857D01*
X93571428Y-101450000D01*
X93785714Y-101378571D01*
X93928571Y-101378571D01*
X94142857Y-101450000D01*
X94214285Y-101521428D01*
X94857142Y-102092857D02*
X95357142Y-102092857D01*
X95571428Y-102878571D02*
X94857142Y-102878571D01*
X94857142Y-101378571D01*
X95571428Y-101378571D01*
X96142857Y-102807142D02*
X96357142Y-102878571D01*
X96714285Y-102878571D01*
X96857142Y-102807142D01*
X96928571Y-102735714D01*
X97000000Y-102592857D01*
X97000000Y-102450000D01*
X96928571Y-102307142D01*
X96857142Y-102235714D01*
X96714285Y-102164285D01*
X96428571Y-102092857D01*
X96285714Y-102021428D01*
X96214285Y-101950000D01*
X96142857Y-101807142D01*
X96142857Y-101664285D01*
X96214285Y-101521428D01*
X96285714Y-101450000D01*
X96428571Y-101378571D01*
X96785714Y-101378571D01*
X97000000Y-101450000D01*
X99071428Y-101378571D02*
X99357142Y-101378571D01*
X99500000Y-101450000D01*
X99642857Y-101592857D01*
X99714285Y-101878571D01*
X99714285Y-102378571D01*
X99642857Y-102664285D01*
X99500000Y-102807142D01*
X99357142Y-102878571D01*
X99071428Y-102878571D01*
X98928571Y-102807142D01*
X98785714Y-102664285D01*
X98714285Y-102378571D01*
X98714285Y-101878571D01*
X98785714Y-101592857D01*
X98928571Y-101450000D01*
X99071428Y-101378571D01*
X100357142Y-101378571D02*
X100357142Y-102592857D01*
X100428571Y-102735714D01*
X100500000Y-102807142D01*
X100642857Y-102878571D01*
X100928571Y-102878571D01*
X101071428Y-102807142D01*
X101142857Y-102735714D01*
X101214285Y-102592857D01*
X101214285Y-101378571D01*
X101714285Y-101378571D02*
X102571428Y-101378571D01*
X102142857Y-102878571D02*
X102142857Y-101378571D01*
X103000000Y-102807142D02*
X103214285Y-102878571D01*
X103571428Y-102878571D01*
X103714285Y-102807142D01*
X103785714Y-102735714D01*
X103857142Y-102592857D01*
X103857142Y-102450000D01*
X103785714Y-102307142D01*
X103714285Y-102235714D01*
X103571428Y-102164285D01*
X103285714Y-102092857D01*
X103142857Y-102021428D01*
X103071428Y-101950000D01*
X103000000Y-101807142D01*
X103000000Y-101664285D01*
X103071428Y-101521428D01*
X103142857Y-101450000D01*
X103285714Y-101378571D01*
X103642857Y-101378571D01*
X103857142Y-101450000D01*
X104500000Y-102878571D02*
X104500000Y-101378571D01*
X105214285Y-102878571D02*
X105214285Y-101378571D01*
X105571428Y-101378571D01*
X105785714Y-101450000D01*
X105928571Y-101592857D01*
X106000000Y-101735714D01*
X106071428Y-102021428D01*
X106071428Y-102235714D01*
X106000000Y-102521428D01*
X105928571Y-102664285D01*
X105785714Y-102807142D01*
X105571428Y-102878571D01*
X105214285Y-102878571D01*
X106714285Y-102092857D02*
X107214285Y-102092857D01*
X107428571Y-102878571D02*
X106714285Y-102878571D01*
X106714285Y-101378571D01*
X107428571Y-101378571D01*
D11*
%TO.C,J1*%
X75890286Y-117520000D02*
X75890286Y-116250000D01*
X76780286Y-103610000D02*
X77540286Y-103610000D01*
X80080286Y-103610000D02*
X80080286Y-109610000D01*
X84400286Y-115207071D02*
X84400286Y-114752929D01*
X83510286Y-112270000D02*
X83510286Y-109610000D01*
X79320286Y-103610000D02*
X80080286Y-103610000D01*
X77440286Y-109610000D02*
X77440286Y-103610000D01*
X77160286Y-117520000D02*
X75890286Y-117520000D01*
X81860286Y-103610000D02*
X82620286Y-103610000D01*
X79320286Y-112667071D02*
X79320286Y-112270000D01*
X80970286Y-112270000D02*
X80970286Y-109610000D01*
X77200286Y-109610000D02*
X77200286Y-103610000D01*
X76780286Y-109610000D02*
X76780286Y-103610000D01*
X80080286Y-115207071D02*
X80080286Y-114752929D01*
X85160286Y-103610000D02*
X85160286Y-109610000D01*
X81860286Y-112667071D02*
X81860286Y-112270000D01*
X76960286Y-109610000D02*
X76960286Y-103610000D01*
X84400286Y-112667071D02*
X84400286Y-112270000D01*
X86110286Y-112270000D02*
X86110286Y-109610000D01*
X81860286Y-109610000D02*
X81860286Y-103610000D01*
X76780286Y-112667071D02*
X76780286Y-112270000D01*
X86110286Y-109610000D02*
X75830286Y-109610000D01*
X84400286Y-109610000D02*
X84400286Y-103610000D01*
X77320286Y-109610000D02*
X77320286Y-103610000D01*
X85160286Y-115207071D02*
X85160286Y-114752929D01*
X77540286Y-112667071D02*
X77540286Y-112270000D01*
X75830286Y-112270000D02*
X86110286Y-112270000D01*
X77540286Y-115140000D02*
X77540286Y-114752929D01*
X77080286Y-109610000D02*
X77080286Y-103610000D01*
X82620286Y-103610000D02*
X82620286Y-109610000D01*
X76780286Y-115140000D02*
X76780286Y-114752929D01*
X82620286Y-112667071D02*
X82620286Y-112270000D01*
X75830286Y-109610000D02*
X75830286Y-112270000D01*
X79320286Y-115207071D02*
X79320286Y-114752929D01*
X82620286Y-115207071D02*
X82620286Y-114752929D01*
X84400286Y-103610000D02*
X85160286Y-103610000D01*
X80080286Y-112667071D02*
X80080286Y-112270000D01*
X76840286Y-109610000D02*
X76840286Y-103610000D01*
X78430286Y-112270000D02*
X78430286Y-109610000D01*
X85160286Y-112667071D02*
X85160286Y-112270000D01*
X77540286Y-103610000D02*
X77540286Y-109610000D01*
X81860286Y-115207071D02*
X81860286Y-114752929D01*
X79320286Y-109610000D02*
X79320286Y-103610000D01*
%TD*%
%LPC*%
D12*
%TO.C,J1*%
X77160286Y-116250000D03*
D13*
X77160286Y-113710000D03*
X79700286Y-116250000D03*
X79700286Y-113710000D03*
X82240286Y-116250000D03*
X82240286Y-113710000D03*
X84780286Y-116250000D03*
X84780286Y-113710000D03*
%TD*%
D14*
%TO.C,P1*%
X97064286Y-115900000D03*
X95064286Y-115900000D03*
X93064286Y-115900000D03*
X91064286Y-115900000D03*
%TD*%
M02*
