M48
; DRILL file {KiCad (6.0.4-0)} date Friday, January 13, 2023 at 09:29:05 PM
; FORMAT={-:-/ absolute / inch / decimal}
; #@! TF.CreationDate,2023-01-13T21:29:05-07:00
; #@! TF.GenerationSoftware,Kicad,Pcbnew,(6.0.4-0)
; #@! TF.FileFunction,Plated,1,2,PTH
FMAT,2
INCH
; #@! TA.AperFunction,Plated,PTH,ViaDrill
T1C0.0157
; #@! TA.AperFunction,Plated,PTH,ComponentDrill
T2C0.0394
%
G90
G05
T1
X3.0118Y-4.0433
X3.0118Y-4.307
X3.0118Y-4.6614
X3.1063Y-4.3858
X3.263Y-4.0433
X3.263Y-4.6614
X3.5118Y-4.0787
X3.5118Y-4.1388
X3.5118Y-4.1978
X3.5118Y-4.2569
X3.5118Y-4.3159
X3.5118Y-4.375
X3.7919Y-4.0281
X4.0165Y-4.0433
X4.0165Y-4.3461
X4.0165Y-4.6299
X4.2677Y-4.0394
X4.2677Y-4.3422
X4.2677Y-4.626
T2
X3.0378Y-4.4768
X3.0378Y-4.5768
X3.1378Y-4.4768
X3.1378Y-4.5768
X3.2378Y-4.4768
X3.2378Y-4.5768
X3.3378Y-4.4768
X3.3378Y-4.5768
T0
M30
