%TF.GenerationSoftware,KiCad,Pcbnew,(6.0.4-0)*%
%TF.CreationDate,2023-01-13T21:29:05-07:00*%
%TF.ProjectId,Gamecube_SD2SP2PRO,47616d65-6375-4626-955f-534432535032,rev?*%
%TF.SameCoordinates,Original*%
%TF.FileFunction,Legend,Bot*%
%TF.FilePolarity,Positive*%
%FSLAX46Y46*%
G04 Gerber Fmt 4.6, Leading zero omitted, Abs format (unit mm)*
G04 Created by KiCad (PCBNEW (6.0.4-0)) date 2023-01-13 21:29:05*
%MOMM*%
%LPD*%
G01*
G04 APERTURE LIST*
G04 Aperture macros list*
%AMRoundRect*
0 Rectangle with rounded corners*
0 $1 Rounding radius*
0 $2 $3 $4 $5 $6 $7 $8 $9 X,Y pos of 4 corners*
0 Add a 4 corners polygon primitive as box body*
4,1,4,$2,$3,$4,$5,$6,$7,$8,$9,$2,$3,0*
0 Add four circle primitives for the rounded corners*
1,1,$1+$1,$2,$3*
1,1,$1+$1,$4,$5*
1,1,$1+$1,$6,$7*
1,1,$1+$1,$8,$9*
0 Add four rect primitives between the rounded corners*
20,1,$1+$1,$2,$3,$4,$5,0*
20,1,$1+$1,$4,$5,$6,$7,0*
20,1,$1+$1,$6,$7,$8,$9,0*
20,1,$1+$1,$8,$9,$2,$3,0*%
G04 Aperture macros list end*
%ADD10C,0.300000*%
%ADD11C,0.150000*%
%ADD12RoundRect,0.200000X0.850000X-0.850000X0.850000X0.850000X-0.850000X0.850000X-0.850000X-0.850000X0*%
%ADD13O,2.100000X2.100000*%
%ADD14RoundRect,0.200000X0.750000X3.500000X-0.750000X3.500000X-0.750000X-3.500000X0.750000X-3.500000X0*%
G04 APERTURE END LIST*
D10*
X105357142Y-101378571D02*
X104500000Y-101378571D01*
X104928571Y-102878571D02*
X104928571Y-101378571D01*
X104000000Y-102878571D02*
X104000000Y-101378571D01*
X104000000Y-102092857D02*
X103142857Y-102092857D01*
X103142857Y-102878571D02*
X103142857Y-101378571D01*
X102428571Y-102878571D02*
X102428571Y-101378571D01*
X101785714Y-102807142D02*
X101571428Y-102878571D01*
X101214285Y-102878571D01*
X101071428Y-102807142D01*
X101000000Y-102735714D01*
X100928571Y-102592857D01*
X100928571Y-102450000D01*
X101000000Y-102307142D01*
X101071428Y-102235714D01*
X101214285Y-102164285D01*
X101500000Y-102092857D01*
X101642857Y-102021428D01*
X101714285Y-101950000D01*
X101785714Y-101807142D01*
X101785714Y-101664285D01*
X101714285Y-101521428D01*
X101642857Y-101450000D01*
X101500000Y-101378571D01*
X101142857Y-101378571D01*
X100928571Y-101450000D01*
X99214285Y-102807142D02*
X99000000Y-102878571D01*
X98642857Y-102878571D01*
X98500000Y-102807142D01*
X98428571Y-102735714D01*
X98357142Y-102592857D01*
X98357142Y-102450000D01*
X98428571Y-102307142D01*
X98500000Y-102235714D01*
X98642857Y-102164285D01*
X98928571Y-102092857D01*
X99071428Y-102021428D01*
X99142857Y-101950000D01*
X99214285Y-101807142D01*
X99214285Y-101664285D01*
X99142857Y-101521428D01*
X99071428Y-101450000D01*
X98928571Y-101378571D01*
X98571428Y-101378571D01*
X98357142Y-101450000D01*
X97714285Y-102878571D02*
X97714285Y-101378571D01*
X97000000Y-102878571D02*
X97000000Y-101378571D01*
X96642857Y-101378571D01*
X96428571Y-101450000D01*
X96285714Y-101592857D01*
X96214285Y-101735714D01*
X96142857Y-102021428D01*
X96142857Y-102235714D01*
X96214285Y-102521428D01*
X96285714Y-102664285D01*
X96428571Y-102807142D01*
X96642857Y-102878571D01*
X97000000Y-102878571D01*
X95500000Y-102092857D02*
X95000000Y-102092857D01*
X94785714Y-102878571D02*
X95500000Y-102878571D01*
X95500000Y-101378571D01*
X94785714Y-101378571D01*
X92500000Y-102092857D02*
X93000000Y-102092857D01*
X93000000Y-102878571D02*
X93000000Y-101378571D01*
X92285714Y-101378571D01*
X91785714Y-102450000D02*
X91071428Y-102450000D01*
X91928571Y-102878571D02*
X91428571Y-101378571D01*
X90928571Y-102878571D01*
X89571428Y-102735714D02*
X89642857Y-102807142D01*
X89857142Y-102878571D01*
X90000000Y-102878571D01*
X90214285Y-102807142D01*
X90357142Y-102664285D01*
X90428571Y-102521428D01*
X90500000Y-102235714D01*
X90500000Y-102021428D01*
X90428571Y-101735714D01*
X90357142Y-101592857D01*
X90214285Y-101450000D01*
X90000000Y-101378571D01*
X89857142Y-101378571D01*
X89642857Y-101450000D01*
X89571428Y-101521428D01*
X88928571Y-102092857D02*
X88428571Y-102092857D01*
X88214285Y-102878571D02*
X88928571Y-102878571D01*
X88928571Y-101378571D01*
X88214285Y-101378571D01*
X86428571Y-102878571D02*
X86428571Y-101378571D01*
X85714285Y-102878571D02*
X85714285Y-101378571D01*
X84857142Y-102878571D01*
X84857142Y-101378571D01*
X84214285Y-102807142D02*
X84000000Y-102878571D01*
X83642857Y-102878571D01*
X83500000Y-102807142D01*
X83428571Y-102735714D01*
X83357142Y-102592857D01*
X83357142Y-102450000D01*
X83428571Y-102307142D01*
X83500000Y-102235714D01*
X83642857Y-102164285D01*
X83928571Y-102092857D01*
X84071428Y-102021428D01*
X84142857Y-101950000D01*
X84214285Y-101807142D01*
X84214285Y-101664285D01*
X84142857Y-101521428D01*
X84071428Y-101450000D01*
X83928571Y-101378571D01*
X83571428Y-101378571D01*
X83357142Y-101450000D01*
X82714285Y-102878571D02*
X82714285Y-101378571D01*
X82000000Y-102878571D02*
X82000000Y-101378571D01*
X81642857Y-101378571D01*
X81428571Y-101450000D01*
X81285714Y-101592857D01*
X81214285Y-101735714D01*
X81142857Y-102021428D01*
X81142857Y-102235714D01*
X81214285Y-102521428D01*
X81285714Y-102664285D01*
X81428571Y-102807142D01*
X81642857Y-102878571D01*
X82000000Y-102878571D01*
X80500000Y-102092857D02*
X80000000Y-102092857D01*
X79785714Y-102878571D02*
X80500000Y-102878571D01*
X80500000Y-101378571D01*
X79785714Y-101378571D01*
D11*
X103219047Y-106594761D02*
X103076190Y-106642380D01*
X102838095Y-106642380D01*
X102742857Y-106594761D01*
X102695238Y-106547142D01*
X102647619Y-106451904D01*
X102647619Y-106356666D01*
X102695238Y-106261428D01*
X102742857Y-106213809D01*
X102838095Y-106166190D01*
X103028571Y-106118571D01*
X103123809Y-106070952D01*
X103171428Y-106023333D01*
X103219047Y-105928095D01*
X103219047Y-105832857D01*
X103171428Y-105737619D01*
X103123809Y-105690000D01*
X103028571Y-105642380D01*
X102790476Y-105642380D01*
X102647619Y-105690000D01*
X102219047Y-106642380D02*
X102219047Y-105642380D01*
X101980952Y-105642380D01*
X101838095Y-105690000D01*
X101742857Y-105785238D01*
X101695238Y-105880476D01*
X101647619Y-106070952D01*
X101647619Y-106213809D01*
X101695238Y-106404285D01*
X101742857Y-106499523D01*
X101838095Y-106594761D01*
X101980952Y-106642380D01*
X102219047Y-106642380D01*
X101266666Y-105737619D02*
X101219047Y-105690000D01*
X101123809Y-105642380D01*
X100885714Y-105642380D01*
X100790476Y-105690000D01*
X100742857Y-105737619D01*
X100695238Y-105832857D01*
X100695238Y-105928095D01*
X100742857Y-106070952D01*
X101314285Y-106642380D01*
X100695238Y-106642380D01*
X100314285Y-106594761D02*
X100171428Y-106642380D01*
X99933333Y-106642380D01*
X99838095Y-106594761D01*
X99790476Y-106547142D01*
X99742857Y-106451904D01*
X99742857Y-106356666D01*
X99790476Y-106261428D01*
X99838095Y-106213809D01*
X99933333Y-106166190D01*
X100123809Y-106118571D01*
X100219047Y-106070952D01*
X100266666Y-106023333D01*
X100314285Y-105928095D01*
X100314285Y-105832857D01*
X100266666Y-105737619D01*
X100219047Y-105690000D01*
X100123809Y-105642380D01*
X99885714Y-105642380D01*
X99742857Y-105690000D01*
X99314285Y-106642380D02*
X99314285Y-105642380D01*
X98933333Y-105642380D01*
X98838095Y-105690000D01*
X98790476Y-105737619D01*
X98742857Y-105832857D01*
X98742857Y-105975714D01*
X98790476Y-106070952D01*
X98838095Y-106118571D01*
X98933333Y-106166190D01*
X99314285Y-106166190D01*
X98361904Y-105737619D02*
X98314285Y-105690000D01*
X98219047Y-105642380D01*
X97980952Y-105642380D01*
X97885714Y-105690000D01*
X97838095Y-105737619D01*
X97790476Y-105832857D01*
X97790476Y-105928095D01*
X97838095Y-106070952D01*
X98409523Y-106642380D01*
X97790476Y-106642380D01*
X96600000Y-106642380D02*
X96600000Y-105642380D01*
X96219047Y-105642380D01*
X96123809Y-105690000D01*
X96076190Y-105737619D01*
X96028571Y-105832857D01*
X96028571Y-105975714D01*
X96076190Y-106070952D01*
X96123809Y-106118571D01*
X96219047Y-106166190D01*
X96600000Y-106166190D01*
X95028571Y-106642380D02*
X95361904Y-106166190D01*
X95600000Y-106642380D02*
X95600000Y-105642380D01*
X95219047Y-105642380D01*
X95123809Y-105690000D01*
X95076190Y-105737619D01*
X95028571Y-105832857D01*
X95028571Y-105975714D01*
X95076190Y-106070952D01*
X95123809Y-106118571D01*
X95219047Y-106166190D01*
X95600000Y-106166190D01*
X94409523Y-105642380D02*
X94219047Y-105642380D01*
X94123809Y-105690000D01*
X94028571Y-105785238D01*
X93980952Y-105975714D01*
X93980952Y-106309047D01*
X94028571Y-106499523D01*
X94123809Y-106594761D01*
X94219047Y-106642380D01*
X94409523Y-106642380D01*
X94504761Y-106594761D01*
X94600000Y-106499523D01*
X94647619Y-106309047D01*
X94647619Y-105975714D01*
X94600000Y-105785238D01*
X94504761Y-105690000D01*
X94409523Y-105642380D01*
X107909523Y-107252380D02*
X107719047Y-107252380D01*
X107623809Y-107300000D01*
X107528571Y-107395238D01*
X107480952Y-107585714D01*
X107480952Y-107919047D01*
X107528571Y-108109523D01*
X107623809Y-108204761D01*
X107719047Y-108252380D01*
X107909523Y-108252380D01*
X108004761Y-108204761D01*
X108100000Y-108109523D01*
X108147619Y-107919047D01*
X108147619Y-107585714D01*
X108100000Y-107395238D01*
X108004761Y-107300000D01*
X107909523Y-107252380D01*
X106480952Y-108252380D02*
X106814285Y-107776190D01*
X107052380Y-108252380D02*
X107052380Y-107252380D01*
X106671428Y-107252380D01*
X106576190Y-107300000D01*
X106528571Y-107347619D01*
X106480952Y-107442857D01*
X106480952Y-107585714D01*
X106528571Y-107680952D01*
X106576190Y-107728571D01*
X106671428Y-107776190D01*
X107052380Y-107776190D01*
X106052380Y-108252380D02*
X106052380Y-107252380D01*
X105052380Y-107300000D02*
X105147619Y-107252380D01*
X105290476Y-107252380D01*
X105433333Y-107300000D01*
X105528571Y-107395238D01*
X105576190Y-107490476D01*
X105623809Y-107680952D01*
X105623809Y-107823809D01*
X105576190Y-108014285D01*
X105528571Y-108109523D01*
X105433333Y-108204761D01*
X105290476Y-108252380D01*
X105195238Y-108252380D01*
X105052380Y-108204761D01*
X105004761Y-108157142D01*
X105004761Y-107823809D01*
X105195238Y-107823809D01*
X104576190Y-108252380D02*
X104576190Y-107252380D01*
X104100000Y-108252380D02*
X104100000Y-107252380D01*
X103528571Y-108252380D01*
X103528571Y-107252380D01*
X103100000Y-107966666D02*
X102623809Y-107966666D01*
X103195238Y-108252380D02*
X102861904Y-107252380D01*
X102528571Y-108252380D01*
X101719047Y-108252380D02*
X102195238Y-108252380D01*
X102195238Y-107252380D01*
X101385714Y-108157142D02*
X101338095Y-108204761D01*
X101385714Y-108252380D01*
X101433333Y-108204761D01*
X101385714Y-108157142D01*
X101385714Y-108252380D01*
X101385714Y-107633333D02*
X101338095Y-107680952D01*
X101385714Y-107728571D01*
X101433333Y-107680952D01*
X101385714Y-107633333D01*
X101385714Y-107728571D01*
X99528571Y-107776190D02*
X99576190Y-107728571D01*
X99671428Y-107680952D01*
X99766666Y-107680952D01*
X99861904Y-107728571D01*
X99909523Y-107776190D01*
X99957142Y-107871428D01*
X99957142Y-107966666D01*
X99909523Y-108061904D01*
X99861904Y-108109523D01*
X99766666Y-108157142D01*
X99671428Y-108157142D01*
X99576190Y-108109523D01*
X99528571Y-108061904D01*
X99528571Y-107680952D02*
X99528571Y-108061904D01*
X99480952Y-108109523D01*
X99433333Y-108109523D01*
X99338095Y-108061904D01*
X99290476Y-107966666D01*
X99290476Y-107728571D01*
X99385714Y-107585714D01*
X99528571Y-107490476D01*
X99719047Y-107442857D01*
X99909523Y-107490476D01*
X100052380Y-107585714D01*
X100147619Y-107728571D01*
X100195238Y-107919047D01*
X100147619Y-108109523D01*
X100052380Y-108252380D01*
X99909523Y-108347619D01*
X99719047Y-108395238D01*
X99528571Y-108347619D01*
X99385714Y-108252380D01*
X98433333Y-108204761D02*
X98528571Y-108252380D01*
X98719047Y-108252380D01*
X98814285Y-108204761D01*
X98861904Y-108157142D01*
X98909523Y-108061904D01*
X98909523Y-107776190D01*
X98861904Y-107680952D01*
X98814285Y-107633333D01*
X98719047Y-107585714D01*
X98528571Y-107585714D01*
X98433333Y-107633333D01*
X98004761Y-108252380D02*
X98004761Y-107585714D01*
X98004761Y-107252380D02*
X98052380Y-107300000D01*
X98004761Y-107347619D01*
X97957142Y-107300000D01*
X98004761Y-107252380D01*
X98004761Y-107347619D01*
X97671428Y-107585714D02*
X97290476Y-107585714D01*
X97528571Y-107252380D02*
X97528571Y-108109523D01*
X97480952Y-108204761D01*
X97385714Y-108252380D01*
X97290476Y-108252380D01*
X96957142Y-108252380D02*
X96957142Y-107585714D01*
X96957142Y-107776190D02*
X96909523Y-107680952D01*
X96861904Y-107633333D01*
X96766666Y-107585714D01*
X96671428Y-107585714D01*
X95909523Y-107585714D02*
X95909523Y-108252380D01*
X96338095Y-107585714D02*
X96338095Y-108109523D01*
X96290476Y-108204761D01*
X96195238Y-108252380D01*
X96052380Y-108252380D01*
X95957142Y-108204761D01*
X95909523Y-108157142D01*
X95480952Y-108204761D02*
X95385714Y-108252380D01*
X95195238Y-108252380D01*
X95100000Y-108204761D01*
X95052380Y-108109523D01*
X95052380Y-108061904D01*
X95100000Y-107966666D01*
X95195238Y-107919047D01*
X95338095Y-107919047D01*
X95433333Y-107871428D01*
X95480952Y-107776190D01*
X95480952Y-107728571D01*
X95433333Y-107633333D01*
X95338095Y-107585714D01*
X95195238Y-107585714D01*
X95100000Y-107633333D01*
X94719047Y-107252380D02*
X94100000Y-107252380D01*
X94433333Y-107633333D01*
X94290476Y-107633333D01*
X94195238Y-107680952D01*
X94147619Y-107728571D01*
X94100000Y-107823809D01*
X94100000Y-108061904D01*
X94147619Y-108157142D01*
X94195238Y-108204761D01*
X94290476Y-108252380D01*
X94576190Y-108252380D01*
X94671428Y-108204761D01*
X94719047Y-108157142D01*
X93480952Y-107252380D02*
X93385714Y-107252380D01*
X93290476Y-107300000D01*
X93242857Y-107347619D01*
X93195238Y-107442857D01*
X93147619Y-107633333D01*
X93147619Y-107871428D01*
X93195238Y-108061904D01*
X93242857Y-108157142D01*
X93290476Y-108204761D01*
X93385714Y-108252380D01*
X93480952Y-108252380D01*
X93576190Y-108204761D01*
X93623809Y-108157142D01*
X93671428Y-108061904D01*
X93719047Y-107871428D01*
X93719047Y-107633333D01*
X93671428Y-107442857D01*
X93623809Y-107347619D01*
X93576190Y-107300000D01*
X93480952Y-107252380D01*
X92528571Y-107252380D02*
X92433333Y-107252380D01*
X92338095Y-107300000D01*
X92290476Y-107347619D01*
X92242857Y-107442857D01*
X92195238Y-107633333D01*
X92195238Y-107871428D01*
X92242857Y-108061904D01*
X92290476Y-108157142D01*
X92338095Y-108204761D01*
X92433333Y-108252380D01*
X92528571Y-108252380D01*
X92623809Y-108204761D01*
X92671428Y-108157142D01*
X92719047Y-108061904D01*
X92766666Y-107871428D01*
X92766666Y-107633333D01*
X92719047Y-107442857D01*
X92671428Y-107347619D01*
X92623809Y-107300000D01*
X92528571Y-107252380D01*
X91576190Y-107252380D02*
X91480952Y-107252380D01*
X91385714Y-107300000D01*
X91338095Y-107347619D01*
X91290476Y-107442857D01*
X91242857Y-107633333D01*
X91242857Y-107871428D01*
X91290476Y-108061904D01*
X91338095Y-108157142D01*
X91385714Y-108204761D01*
X91480952Y-108252380D01*
X91576190Y-108252380D01*
X91671428Y-108204761D01*
X91719047Y-108157142D01*
X91766666Y-108061904D01*
X91814285Y-107871428D01*
X91814285Y-107633333D01*
X91766666Y-107442857D01*
X91719047Y-107347619D01*
X91671428Y-107300000D01*
X91576190Y-107252380D01*
X90814285Y-107585714D02*
X90814285Y-108585714D01*
X90814285Y-107633333D02*
X90719047Y-107585714D01*
X90528571Y-107585714D01*
X90433333Y-107633333D01*
X90385714Y-107680952D01*
X90338095Y-107776190D01*
X90338095Y-108061904D01*
X90385714Y-108157142D01*
X90433333Y-108204761D01*
X90528571Y-108252380D01*
X90719047Y-108252380D01*
X90814285Y-108204761D01*
X89957142Y-108204761D02*
X89861904Y-108252380D01*
X89671428Y-108252380D01*
X89576190Y-108204761D01*
X89528571Y-108109523D01*
X89528571Y-108061904D01*
X89576190Y-107966666D01*
X89671428Y-107919047D01*
X89814285Y-107919047D01*
X89909523Y-107871428D01*
X89957142Y-107776190D01*
X89957142Y-107728571D01*
X89909523Y-107633333D01*
X89814285Y-107585714D01*
X89671428Y-107585714D01*
X89576190Y-107633333D01*
X89100000Y-108252380D02*
X89100000Y-107585714D01*
X89100000Y-107252380D02*
X89147619Y-107300000D01*
X89100000Y-107347619D01*
X89052380Y-107300000D01*
X89100000Y-107252380D01*
X89100000Y-107347619D01*
X106147619Y-109862380D02*
X106147619Y-108862380D01*
X105766666Y-108862380D01*
X105671428Y-108910000D01*
X105623809Y-108957619D01*
X105576190Y-109052857D01*
X105576190Y-109195714D01*
X105623809Y-109290952D01*
X105671428Y-109338571D01*
X105766666Y-109386190D01*
X106147619Y-109386190D01*
X104576190Y-109862380D02*
X104909523Y-109386190D01*
X105147619Y-109862380D02*
X105147619Y-108862380D01*
X104766666Y-108862380D01*
X104671428Y-108910000D01*
X104623809Y-108957619D01*
X104576190Y-109052857D01*
X104576190Y-109195714D01*
X104623809Y-109290952D01*
X104671428Y-109338571D01*
X104766666Y-109386190D01*
X105147619Y-109386190D01*
X103957142Y-108862380D02*
X103766666Y-108862380D01*
X103671428Y-108910000D01*
X103576190Y-109005238D01*
X103528571Y-109195714D01*
X103528571Y-109529047D01*
X103576190Y-109719523D01*
X103671428Y-109814761D01*
X103766666Y-109862380D01*
X103957142Y-109862380D01*
X104052380Y-109814761D01*
X104147619Y-109719523D01*
X104195238Y-109529047D01*
X104195238Y-109195714D01*
X104147619Y-109005238D01*
X104052380Y-108910000D01*
X103957142Y-108862380D01*
X103100000Y-109767142D02*
X103052380Y-109814761D01*
X103100000Y-109862380D01*
X103147619Y-109814761D01*
X103100000Y-109767142D01*
X103100000Y-109862380D01*
X103100000Y-109243333D02*
X103052380Y-109290952D01*
X103100000Y-109338571D01*
X103147619Y-109290952D01*
X103100000Y-109243333D01*
X103100000Y-109338571D01*
X101242857Y-109386190D02*
X101290476Y-109338571D01*
X101385714Y-109290952D01*
X101480952Y-109290952D01*
X101576190Y-109338571D01*
X101623809Y-109386190D01*
X101671428Y-109481428D01*
X101671428Y-109576666D01*
X101623809Y-109671904D01*
X101576190Y-109719523D01*
X101480952Y-109767142D01*
X101385714Y-109767142D01*
X101290476Y-109719523D01*
X101242857Y-109671904D01*
X101242857Y-109290952D02*
X101242857Y-109671904D01*
X101195238Y-109719523D01*
X101147619Y-109719523D01*
X101052380Y-109671904D01*
X101004761Y-109576666D01*
X101004761Y-109338571D01*
X101100000Y-109195714D01*
X101242857Y-109100476D01*
X101433333Y-109052857D01*
X101623809Y-109100476D01*
X101766666Y-109195714D01*
X101861904Y-109338571D01*
X101909523Y-109529047D01*
X101861904Y-109719523D01*
X101766666Y-109862380D01*
X101623809Y-109957619D01*
X101433333Y-110005238D01*
X101242857Y-109957619D01*
X101100000Y-109862380D01*
X100576190Y-109862380D02*
X100576190Y-109195714D01*
X100576190Y-109290952D02*
X100528571Y-109243333D01*
X100433333Y-109195714D01*
X100290476Y-109195714D01*
X100195238Y-109243333D01*
X100147619Y-109338571D01*
X100147619Y-109862380D01*
X100147619Y-109338571D02*
X100100000Y-109243333D01*
X100004761Y-109195714D01*
X99861904Y-109195714D01*
X99766666Y-109243333D01*
X99719047Y-109338571D01*
X99719047Y-109862380D01*
X99242857Y-109862380D02*
X99242857Y-109195714D01*
X99242857Y-108862380D02*
X99290476Y-108910000D01*
X99242857Y-108957619D01*
X99195238Y-108910000D01*
X99242857Y-108862380D01*
X99242857Y-108957619D01*
X98814285Y-109814761D02*
X98719047Y-109862380D01*
X98528571Y-109862380D01*
X98433333Y-109814761D01*
X98385714Y-109719523D01*
X98385714Y-109671904D01*
X98433333Y-109576666D01*
X98528571Y-109529047D01*
X98671428Y-109529047D01*
X98766666Y-109481428D01*
X98814285Y-109386190D01*
X98814285Y-109338571D01*
X98766666Y-109243333D01*
X98671428Y-109195714D01*
X98528571Y-109195714D01*
X98433333Y-109243333D01*
X98100000Y-109195714D02*
X97719047Y-109195714D01*
X97957142Y-108862380D02*
X97957142Y-109719523D01*
X97909523Y-109814761D01*
X97814285Y-109862380D01*
X97719047Y-109862380D01*
X97004761Y-109814761D02*
X97100000Y-109862380D01*
X97290476Y-109862380D01*
X97385714Y-109814761D01*
X97433333Y-109719523D01*
X97433333Y-109338571D01*
X97385714Y-109243333D01*
X97290476Y-109195714D01*
X97100000Y-109195714D01*
X97004761Y-109243333D01*
X96957142Y-109338571D01*
X96957142Y-109433809D01*
X97433333Y-109529047D01*
X96528571Y-109862380D02*
X96528571Y-109195714D01*
X96528571Y-109386190D02*
X96480952Y-109290952D01*
X96433333Y-109243333D01*
X96338095Y-109195714D01*
X96242857Y-109195714D01*
X95480952Y-109862380D02*
X95480952Y-109338571D01*
X95528571Y-109243333D01*
X95623809Y-109195714D01*
X95814285Y-109195714D01*
X95909523Y-109243333D01*
X95480952Y-109814761D02*
X95576190Y-109862380D01*
X95814285Y-109862380D01*
X95909523Y-109814761D01*
X95957142Y-109719523D01*
X95957142Y-109624285D01*
X95909523Y-109529047D01*
X95814285Y-109481428D01*
X95576190Y-109481428D01*
X95480952Y-109433809D01*
X94576190Y-109862380D02*
X94576190Y-108862380D01*
X94576190Y-109814761D02*
X94671428Y-109862380D01*
X94861904Y-109862380D01*
X94957142Y-109814761D01*
X95004761Y-109767142D01*
X95052380Y-109671904D01*
X95052380Y-109386190D01*
X95004761Y-109290952D01*
X94957142Y-109243333D01*
X94861904Y-109195714D01*
X94671428Y-109195714D01*
X94576190Y-109243333D01*
X93671428Y-109862380D02*
X93671428Y-108862380D01*
X93671428Y-109814761D02*
X93766666Y-109862380D01*
X93957142Y-109862380D01*
X94052380Y-109814761D01*
X94100000Y-109767142D01*
X94147619Y-109671904D01*
X94147619Y-109386190D01*
X94100000Y-109290952D01*
X94052380Y-109243333D01*
X93957142Y-109195714D01*
X93766666Y-109195714D01*
X93671428Y-109243333D01*
X93052380Y-109862380D02*
X93147619Y-109814761D01*
X93195238Y-109767142D01*
X93242857Y-109671904D01*
X93242857Y-109386190D01*
X93195238Y-109290952D01*
X93147619Y-109243333D01*
X93052380Y-109195714D01*
X92909523Y-109195714D01*
X92814285Y-109243333D01*
X92766666Y-109290952D01*
X92719047Y-109386190D01*
X92719047Y-109671904D01*
X92766666Y-109767142D01*
X92814285Y-109814761D01*
X92909523Y-109862380D01*
X93052380Y-109862380D01*
X92290476Y-109195714D02*
X92290476Y-109862380D01*
X92290476Y-109290952D02*
X92242857Y-109243333D01*
X92147619Y-109195714D01*
X92004761Y-109195714D01*
X91909523Y-109243333D01*
X91861904Y-109338571D01*
X91861904Y-109862380D01*
X91433333Y-109814761D02*
X91338095Y-109862380D01*
X91147619Y-109862380D01*
X91052380Y-109814761D01*
X91004761Y-109719523D01*
X91004761Y-109671904D01*
X91052380Y-109576666D01*
X91147619Y-109529047D01*
X91290476Y-109529047D01*
X91385714Y-109481428D01*
X91433333Y-109386190D01*
X91433333Y-109338571D01*
X91385714Y-109243333D01*
X91290476Y-109195714D01*
X91147619Y-109195714D01*
X91052380Y-109243333D01*
%LPC*%
D12*
%TO.C,J1*%
X77160286Y-116250000D03*
D13*
X77160286Y-113710000D03*
X79700286Y-116250000D03*
X79700286Y-113710000D03*
X82240286Y-116250000D03*
X82240286Y-113710000D03*
X84780286Y-116250000D03*
X84780286Y-113710000D03*
%TD*%
D14*
%TO.C,P1*%
X98064286Y-115900000D03*
X96064286Y-115900000D03*
X94064286Y-115900000D03*
X92064286Y-115900000D03*
%TD*%
M02*
