M48
; DRILL file {KiCad (6.0.4-0)} date Tuesday, January 17, 2023 at 12:41:14 AM
; FORMAT={-:-/ absolute / inch / decimal}
; #@! TF.CreationDate,2023-01-17T00:41:14-07:00
; #@! TF.GenerationSoftware,Kicad,Pcbnew,(6.0.4-0)
; #@! TF.FileFunction,Plated,1,2,PTH
FMAT,2
INCH
; #@! TA.AperFunction,Plated,PTH,ViaDrill
T1C0.0157
%
G90
G05
T1
X3.0118Y-2.2362
X3.0118Y-2.4717
X3.0118Y-2.7061
X3.0118Y-2.9404
X3.0118Y-3.1748
X3.0118Y-3.4092
X3.0118Y-3.6436
X3.0118Y-3.8779
X3.2165Y-2.7061
X3.2165Y-2.9404
X3.2165Y-3.1748
X3.2165Y-3.4092
X3.263Y-2.2362
X3.263Y-2.4717
X3.263Y-3.6436
X3.263Y-3.8779
X3.2874Y-2.9449
X3.3189Y-2.5315
X3.3189Y-2.689
X3.4341Y-2.7913
X3.4341Y-2.9404
X3.4341Y-3.1748
X3.4341Y-3.4092
X3.5039Y-2.4055
X3.5142Y-2.2362
X3.5142Y-3.8779
X3.5157Y-3.6614
X3.5709Y-2.8583
X3.6575Y-2.8504
X3.7654Y-2.2362
X3.7654Y-2.4717
X3.7654Y-2.7061
X3.7654Y-2.9404
X3.7654Y-3.1748
X3.7654Y-3.4092
X3.8739Y-3.6417
X3.8857Y-3.8661
X3.9803Y-2.4717
X3.9803Y-2.7061
X3.9803Y-2.9404
X4.0165Y-3.1748
X4.0165Y-3.4092
X4.0165Y-3.6436
X4.0165Y-3.8779
X4.2677Y-3.1709
X4.2677Y-3.4052
X4.2677Y-3.6396
X4.2677Y-3.874
T0
M30
