%TF.GenerationSoftware,KiCad,Pcbnew,(6.0.4-0)*%
%TF.CreationDate,2023-01-17T00:41:14-07:00*%
%TF.ProjectId,Gamecube_SD2SP2PRO,47616d65-6375-4626-955f-534432535032,rev?*%
%TF.SameCoordinates,Original*%
%TF.FileFunction,Legend,Top*%
%TF.FilePolarity,Positive*%
%FSLAX46Y46*%
G04 Gerber Fmt 4.6, Leading zero omitted, Abs format (unit mm)*
G04 Created by KiCad (PCBNEW (6.0.4-0)) date 2023-01-17 00:41:14*
%MOMM*%
%LPD*%
G01*
G04 APERTURE LIST*
G04 Aperture macros list*
%AMRoundRect*
0 Rectangle with rounded corners*
0 $1 Rounding radius*
0 $2 $3 $4 $5 $6 $7 $8 $9 X,Y pos of 4 corners*
0 Add a 4 corners polygon primitive as box body*
4,1,4,$2,$3,$4,$5,$6,$7,$8,$9,$2,$3,0*
0 Add four circle primitives for the rounded corners*
1,1,$1+$1,$2,$3*
1,1,$1+$1,$4,$5*
1,1,$1+$1,$6,$7*
1,1,$1+$1,$8,$9*
0 Add four rect primitives between the rounded corners*
20,1,$1+$1,$2,$3,$4,$5,0*
20,1,$1+$1,$4,$5,$6,$7,0*
20,1,$1+$1,$6,$7,$8,$9,0*
20,1,$1+$1,$8,$9,$2,$3,0*%
G04 Aperture macros list end*
%ADD10C,0.120000*%
%ADD11C,1.450000*%
%ADD12RoundRect,0.200000X0.800000X-0.350000X0.800000X0.350000X-0.800000X0.350000X-0.800000X-0.350000X0*%
%ADD13RoundRect,0.200000X1.100000X-0.600000X1.100000X0.600000X-1.100000X0.600000X-1.100000X-0.600000X0*%
%ADD14RoundRect,0.200000X0.750000X-0.800000X0.750000X0.800000X-0.750000X0.800000X-0.750000X-0.800000X0*%
%ADD15RoundRect,0.340000X0.140000X0.170000X-0.140000X0.170000X-0.140000X-0.170000X0.140000X-0.170000X0*%
%ADD16RoundRect,0.200000X-1.500000X-0.500000X1.500000X-0.500000X1.500000X0.500000X-1.500000X0.500000X0*%
G04 APERTURE END LIST*
D10*
%TO.C,C1*%
X88207836Y-88160000D02*
X87992164Y-88160000D01*
X88207836Y-87440000D02*
X87992164Y-87440000D01*
%TO.C,J2*%
X86464000Y-67030000D02*
X86464000Y-68050000D01*
X86464000Y-70140000D02*
X91664000Y-70140000D01*
X91664000Y-60430000D02*
X93024000Y-60430000D01*
X91664000Y-59860000D02*
X91664000Y-60430000D01*
X91664000Y-61950000D02*
X91664000Y-62970000D01*
X86464000Y-69570000D02*
X86464000Y-70140000D01*
X91664000Y-67030000D02*
X91664000Y-68050000D01*
X86464000Y-59860000D02*
X86464000Y-60430000D01*
X86464000Y-59860000D02*
X91664000Y-59860000D01*
X86464000Y-64490000D02*
X86464000Y-65510000D01*
X91664000Y-69570000D02*
X91664000Y-70140000D01*
X91664000Y-64490000D02*
X91664000Y-65510000D01*
X86464000Y-61950000D02*
X86464000Y-62970000D01*
%TD*%
%LPC*%
D11*
%TO.C,J3*%
X106550000Y-87000000D03*
X106550000Y-95000000D03*
D12*
X95550000Y-87800000D03*
X95550000Y-88900000D03*
X95550000Y-90000000D03*
X95550000Y-91100000D03*
X95550000Y-92200000D03*
X95550000Y-93300000D03*
X95550000Y-94400000D03*
X95550000Y-95500000D03*
X95550000Y-96600000D03*
D13*
X106150000Y-82300000D03*
X106150000Y-97800000D03*
D14*
X96300000Y-83200000D03*
X96300000Y-98000000D03*
%TD*%
D15*
%TO.C,C1*%
X88580000Y-87800000D03*
X87620000Y-87800000D03*
%TD*%
D16*
%TO.C,J2*%
X91584000Y-61190000D03*
X86544000Y-61190000D03*
X91584000Y-63730000D03*
X86544000Y-63730000D03*
X91584000Y-66270000D03*
X86544000Y-66270000D03*
X91584000Y-68810000D03*
X86544000Y-68810000D03*
%TD*%
M02*
