%TF.GenerationSoftware,KiCad,Pcbnew,(6.0.4-0)*%
%TF.CreationDate,2023-01-17T00:41:14-07:00*%
%TF.ProjectId,Gamecube_SD2SP2PRO,47616d65-6375-4626-955f-534432535032,rev?*%
%TF.SameCoordinates,Original*%
%TF.FileFunction,Copper,L1,Top*%
%TF.FilePolarity,Positive*%
%FSLAX46Y46*%
G04 Gerber Fmt 4.6, Leading zero omitted, Abs format (unit mm)*
G04 Created by KiCad (PCBNEW (6.0.4-0)) date 2023-01-17 00:41:14*
%MOMM*%
%LPD*%
G01*
G04 APERTURE LIST*
G04 Aperture macros list*
%AMRoundRect*
0 Rectangle with rounded corners*
0 $1 Rounding radius*
0 $2 $3 $4 $5 $6 $7 $8 $9 X,Y pos of 4 corners*
0 Add a 4 corners polygon primitive as box body*
4,1,4,$2,$3,$4,$5,$6,$7,$8,$9,$2,$3,0*
0 Add four circle primitives for the rounded corners*
1,1,$1+$1,$2,$3*
1,1,$1+$1,$4,$5*
1,1,$1+$1,$6,$7*
1,1,$1+$1,$8,$9*
0 Add four rect primitives between the rounded corners*
20,1,$1+$1,$2,$3,$4,$5,0*
20,1,$1+$1,$4,$5,$6,$7,0*
20,1,$1+$1,$6,$7,$8,$9,0*
20,1,$1+$1,$8,$9,$2,$3,0*%
G04 Aperture macros list end*
%TA.AperFunction,SMDPad,CuDef*%
%ADD10R,1.600000X0.700000*%
%TD*%
%TA.AperFunction,SMDPad,CuDef*%
%ADD11R,2.200000X1.200000*%
%TD*%
%TA.AperFunction,SMDPad,CuDef*%
%ADD12R,1.500000X1.600000*%
%TD*%
%TA.AperFunction,SMDPad,CuDef*%
%ADD13RoundRect,0.140000X0.140000X0.170000X-0.140000X0.170000X-0.140000X-0.170000X0.140000X-0.170000X0*%
%TD*%
%TA.AperFunction,SMDPad,CuDef*%
%ADD14R,3.000000X1.000000*%
%TD*%
%TA.AperFunction,ViaPad*%
%ADD15C,0.800000*%
%TD*%
%TA.AperFunction,Conductor*%
%ADD16C,0.250000*%
%TD*%
%TA.AperFunction,Conductor*%
%ADD17C,1.000000*%
%TD*%
G04 APERTURE END LIST*
D10*
%TO.P,J3,1,DAT2*%
%TO.N,Net-(J2-Pad3)*%
X95550000Y-87800000D03*
%TO.P,J3,2,DAT3/CD*%
%TO.N,Net-(J2-Pad7)*%
X95550000Y-88900000D03*
%TO.P,J3,3,CMD*%
%TO.N,Net-(J2-Pad5)*%
X95550000Y-90000000D03*
%TO.P,J3,4,VDD*%
%TO.N,/+3.3*%
X95550000Y-91100000D03*
%TO.P,J3,5,CLK*%
%TO.N,Net-(J2-Pad4)*%
X95550000Y-92200000D03*
%TO.P,J3,6,VSS*%
%TO.N,GND*%
X95550000Y-93300000D03*
%TO.P,J3,7,DAT0*%
%TO.N,Net-(J2-Pad6)*%
X95550000Y-94400000D03*
%TO.P,J3,8,DAT1*%
%TO.N,unconnected-(J3-Pad8)*%
X95550000Y-95500000D03*
%TO.P,J3,9,SHIELD*%
%TO.N,GND*%
X95550000Y-96600000D03*
D11*
%TO.P,J3,SH*%
%TO.N,N/C*%
X106150000Y-82300000D03*
X106150000Y-97800000D03*
D12*
X96300000Y-83200000D03*
X96300000Y-98000000D03*
%TD*%
D13*
%TO.P,C1,1*%
%TO.N,/+3.3*%
X88580000Y-87800000D03*
%TO.P,C1,2*%
%TO.N,GND*%
X87620000Y-87800000D03*
%TD*%
D14*
%TO.P,J2,1,Pin_1*%
%TO.N,/+3.3*%
X91584000Y-61190000D03*
%TO.P,J2,2,Pin_2*%
%TO.N,GND*%
X86544000Y-61190000D03*
%TO.P,J2,3,Pin_3*%
%TO.N,Net-(J2-Pad3)*%
X91584000Y-63730000D03*
%TO.P,J2,4,Pin_4*%
%TO.N,Net-(J2-Pad4)*%
X86544000Y-63730000D03*
%TO.P,J2,5,Pin_5*%
%TO.N,Net-(J2-Pad5)*%
X91584000Y-66270000D03*
%TO.P,J2,6,Pin_6*%
%TO.N,Net-(J2-Pad6)*%
X86544000Y-66270000D03*
%TO.P,J2,7,Pin_7*%
%TO.N,Net-(J2-Pad7)*%
X91584000Y-68810000D03*
%TO.P,J2,8,Pin_8*%
%TO.N,GND*%
X86544000Y-68810000D03*
%TD*%
D15*
%TO.N,GND*%
X101100000Y-62780569D03*
X108400000Y-98399585D03*
X76500000Y-68733739D03*
X82880000Y-98499585D03*
X102020000Y-98499585D03*
X95640000Y-62780569D03*
X108400000Y-92446416D03*
X98697560Y-98200000D03*
X95640000Y-86593247D03*
X81700000Y-80640077D03*
X108400000Y-86493247D03*
X101100000Y-68733739D03*
X76500000Y-86593247D03*
X102020000Y-92546416D03*
X87224879Y-70900000D03*
X102020000Y-86593247D03*
X81700000Y-68733739D03*
X95640000Y-56800000D03*
X89300000Y-93000000D03*
X76500000Y-80640077D03*
X89260000Y-98499585D03*
X76500000Y-56800000D03*
X98397560Y-92500000D03*
X87224879Y-86593247D03*
X108400000Y-80540077D03*
X92900000Y-72400000D03*
X76500000Y-62780569D03*
X95640000Y-74686908D03*
X87224879Y-80640077D03*
X87224879Y-74686908D03*
X95640000Y-68733739D03*
X82880000Y-62780569D03*
X89000000Y-61100000D03*
X89260000Y-56800000D03*
X81700000Y-86593247D03*
X102020000Y-80640077D03*
X82880000Y-56800000D03*
X83500000Y-74800000D03*
X90700000Y-72600000D03*
X81700000Y-74686908D03*
X82880000Y-92546416D03*
X76500000Y-98499585D03*
X95640000Y-80640077D03*
X101100000Y-74686908D03*
X76500000Y-92546416D03*
X76500000Y-74686908D03*
%TO.N,Net-(J2-Pad4)*%
X84300000Y-68300000D03*
X84300000Y-64300000D03*
%TD*%
D16*
%TO.N,Net-(J2-Pad6)*%
X84530000Y-66270000D02*
X82600000Y-68200000D01*
X82600000Y-68200000D02*
X82600000Y-68429353D01*
X82600000Y-68429353D02*
X82604283Y-68433636D01*
X86544000Y-66270000D02*
X84530000Y-66270000D01*
X82600000Y-74382522D02*
X82604283Y-74386805D01*
X82604283Y-68433636D02*
X82604283Y-69033842D01*
X82604283Y-69033842D02*
X82600000Y-69038125D01*
X82600000Y-69038125D02*
X82600000Y-74382522D01*
X82604283Y-74386805D02*
X82604283Y-88504283D01*
X82604283Y-88504283D02*
X88500000Y-94400000D01*
X88500000Y-94400000D02*
X95550000Y-94400000D01*
%TO.N,Net-(J2-Pad4)*%
X84300000Y-68300000D02*
X84300000Y-88000000D01*
X84300000Y-88000000D02*
X88500000Y-92200000D01*
X88500000Y-92200000D02*
X95550000Y-92200000D01*
D17*
%TO.N,/+3.3*%
X95550000Y-91100000D02*
X91733953Y-91100000D01*
X88800000Y-88166047D02*
X88800000Y-63114978D01*
X91733953Y-91100000D02*
X88800000Y-88166047D01*
X88800000Y-63114978D02*
X90724978Y-61190000D01*
X90724978Y-61190000D02*
X91584000Y-61190000D01*
D16*
%TO.N,Net-(J2-Pad5)*%
X91584000Y-66270000D02*
X89624520Y-68229480D01*
X89624520Y-87824520D02*
X91800000Y-90000000D01*
X89624520Y-68229480D02*
X89624520Y-87824520D01*
X91800000Y-90000000D02*
X95550000Y-90000000D01*
%TO.N,Net-(J2-Pad7)*%
X91584000Y-68810000D02*
X91584000Y-87184000D01*
X91584000Y-87184000D02*
X93300000Y-88900000D01*
X93300000Y-88900000D02*
X95550000Y-88900000D01*
%TO.N,Net-(J2-Pad3)*%
X95550000Y-87800000D02*
X94050000Y-87800000D01*
X94050000Y-87800000D02*
X92800000Y-86550000D01*
X92800000Y-86550000D02*
X92800000Y-75100000D01*
X94700000Y-64400000D02*
X94030000Y-63730000D01*
X94700000Y-73200000D02*
X94700000Y-64400000D01*
X92800000Y-75100000D02*
X94700000Y-73200000D01*
X94030000Y-63730000D02*
X91584000Y-63730000D01*
%TO.N,Net-(J2-Pad4)*%
X84870000Y-63730000D02*
X86544000Y-63730000D01*
X84300000Y-64300000D02*
X84870000Y-63730000D01*
%TD*%
%TA.AperFunction,Conductor*%
%TO.N,GND*%
G36*
X95348835Y-55198502D02*
G01*
X95374586Y-55220452D01*
X101559374Y-62128488D01*
X101589910Y-62192582D01*
X101591500Y-62212534D01*
X101591500Y-79771377D01*
X101591498Y-79772147D01*
X101591024Y-79849721D01*
X101593491Y-79858352D01*
X101599150Y-79878153D01*
X101602728Y-79894915D01*
X101606920Y-79924187D01*
X101610634Y-79932355D01*
X101610634Y-79932356D01*
X101617548Y-79947562D01*
X101623996Y-79965086D01*
X101631051Y-79989771D01*
X101635843Y-79997365D01*
X101635844Y-79997368D01*
X101646830Y-80014780D01*
X101654969Y-80029863D01*
X101667208Y-80056782D01*
X101673069Y-80063584D01*
X101683970Y-80076235D01*
X101695073Y-80091239D01*
X101708776Y-80112958D01*
X101715501Y-80118897D01*
X101715504Y-80118901D01*
X101730938Y-80132532D01*
X101742982Y-80144724D01*
X101756427Y-80160327D01*
X101756430Y-80160329D01*
X101762287Y-80167127D01*
X101769816Y-80172007D01*
X101769817Y-80172008D01*
X101783835Y-80181094D01*
X101798709Y-80192385D01*
X101811217Y-80203431D01*
X101817951Y-80209378D01*
X101844711Y-80221942D01*
X101859691Y-80230263D01*
X101876983Y-80241471D01*
X101876988Y-80241473D01*
X101884515Y-80246352D01*
X101893108Y-80248922D01*
X101893113Y-80248924D01*
X101909120Y-80253711D01*
X101926564Y-80260372D01*
X101941676Y-80267467D01*
X101941678Y-80267468D01*
X101949800Y-80271281D01*
X101958667Y-80272662D01*
X101958668Y-80272662D01*
X101968310Y-80274163D01*
X101979017Y-80275830D01*
X101995732Y-80279613D01*
X102015466Y-80285515D01*
X102015472Y-80285516D01*
X102024066Y-80288086D01*
X102033037Y-80288141D01*
X102033038Y-80288141D01*
X102043097Y-80288202D01*
X102058506Y-80288296D01*
X102059289Y-80288329D01*
X102060386Y-80288500D01*
X102091377Y-80288500D01*
X102092147Y-80288502D01*
X102165785Y-80288952D01*
X102165786Y-80288952D01*
X102169721Y-80288976D01*
X102171065Y-80288592D01*
X102172410Y-80288500D01*
X109929786Y-80288500D01*
X109997907Y-80308502D01*
X110044400Y-80362158D01*
X110055786Y-80414500D01*
X110055786Y-100365500D01*
X110035784Y-100433621D01*
X109982128Y-100480114D01*
X109929786Y-100491500D01*
X74698786Y-100491500D01*
X74630665Y-100471498D01*
X74584172Y-100417842D01*
X74572786Y-100365500D01*
X74572786Y-96994669D01*
X94242001Y-96994669D01*
X94242371Y-97001490D01*
X94247895Y-97052352D01*
X94251521Y-97067604D01*
X94296676Y-97188054D01*
X94305214Y-97203649D01*
X94381715Y-97305724D01*
X94394276Y-97318285D01*
X94496351Y-97394786D01*
X94511946Y-97403324D01*
X94632394Y-97448478D01*
X94647649Y-97452105D01*
X94698514Y-97457631D01*
X94705328Y-97458000D01*
X94915500Y-97458000D01*
X94983621Y-97478002D01*
X95030114Y-97531658D01*
X95041500Y-97584000D01*
X95041500Y-98848134D01*
X95048255Y-98910316D01*
X95099385Y-99046705D01*
X95186739Y-99163261D01*
X95303295Y-99250615D01*
X95439684Y-99301745D01*
X95501866Y-99308500D01*
X97098134Y-99308500D01*
X97160316Y-99301745D01*
X97296705Y-99250615D01*
X97413261Y-99163261D01*
X97500615Y-99046705D01*
X97551745Y-98910316D01*
X97558500Y-98848134D01*
X97558500Y-98448134D01*
X104541500Y-98448134D01*
X104548255Y-98510316D01*
X104599385Y-98646705D01*
X104686739Y-98763261D01*
X104803295Y-98850615D01*
X104939684Y-98901745D01*
X105001866Y-98908500D01*
X107298134Y-98908500D01*
X107360316Y-98901745D01*
X107496705Y-98850615D01*
X107613261Y-98763261D01*
X107700615Y-98646705D01*
X107751745Y-98510316D01*
X107758500Y-98448134D01*
X107758500Y-97151866D01*
X107751745Y-97089684D01*
X107700615Y-96953295D01*
X107613261Y-96836739D01*
X107496705Y-96749385D01*
X107360316Y-96698255D01*
X107298134Y-96691500D01*
X105001866Y-96691500D01*
X104939684Y-96698255D01*
X104803295Y-96749385D01*
X104686739Y-96836739D01*
X104599385Y-96953295D01*
X104548255Y-97089684D01*
X104541500Y-97151866D01*
X104541500Y-98448134D01*
X97558500Y-98448134D01*
X97558500Y-97151866D01*
X97551745Y-97089684D01*
X97500615Y-96953295D01*
X97413261Y-96836739D01*
X97296705Y-96749385D01*
X97160316Y-96698255D01*
X97098134Y-96691500D01*
X95501866Y-96691500D01*
X95439684Y-96698255D01*
X95303295Y-96749385D01*
X95231870Y-96802915D01*
X95197297Y-96828826D01*
X95130791Y-96853674D01*
X95121732Y-96854000D01*
X94260116Y-96854000D01*
X94244877Y-96858475D01*
X94243672Y-96859865D01*
X94242001Y-96867548D01*
X94242001Y-96994669D01*
X74572786Y-96994669D01*
X74572786Y-69018068D01*
X81961780Y-69018068D01*
X81962526Y-69025960D01*
X81965941Y-69062086D01*
X81966500Y-69073944D01*
X81966500Y-74303755D01*
X81965973Y-74314938D01*
X81964298Y-74322431D01*
X81964547Y-74330357D01*
X81964547Y-74330358D01*
X81966438Y-74390508D01*
X81966500Y-74394467D01*
X81966500Y-74422378D01*
X81966997Y-74426312D01*
X81966997Y-74426313D01*
X81967005Y-74426378D01*
X81967938Y-74438215D01*
X81969327Y-74482411D01*
X81969947Y-74484544D01*
X81970783Y-74495172D01*
X81970783Y-88425516D01*
X81970256Y-88436699D01*
X81968581Y-88444192D01*
X81968830Y-88452118D01*
X81968830Y-88452119D01*
X81970721Y-88512269D01*
X81970783Y-88516228D01*
X81970783Y-88544139D01*
X81971280Y-88548073D01*
X81971280Y-88548074D01*
X81971288Y-88548139D01*
X81972221Y-88559976D01*
X81973610Y-88604172D01*
X81979261Y-88623622D01*
X81983270Y-88642983D01*
X81985809Y-88663080D01*
X81988728Y-88670451D01*
X81988728Y-88670453D01*
X82002087Y-88704195D01*
X82005932Y-88715425D01*
X82009249Y-88726843D01*
X82018265Y-88757876D01*
X82022298Y-88764695D01*
X82022300Y-88764700D01*
X82028576Y-88775311D01*
X82037271Y-88793059D01*
X82044731Y-88811900D01*
X82049393Y-88818316D01*
X82049393Y-88818317D01*
X82070719Y-88847670D01*
X82077235Y-88857590D01*
X82092877Y-88884038D01*
X82099741Y-88895645D01*
X82114062Y-88909966D01*
X82126902Y-88924999D01*
X82138811Y-88941390D01*
X82144917Y-88946441D01*
X82172888Y-88969581D01*
X82181667Y-88977571D01*
X87996348Y-94792253D01*
X88003888Y-94800539D01*
X88008000Y-94807018D01*
X88013777Y-94812443D01*
X88057651Y-94853643D01*
X88060493Y-94856398D01*
X88080230Y-94876135D01*
X88083427Y-94878615D01*
X88092447Y-94886318D01*
X88124679Y-94916586D01*
X88131625Y-94920405D01*
X88131628Y-94920407D01*
X88142434Y-94926348D01*
X88158953Y-94937199D01*
X88174959Y-94949614D01*
X88182228Y-94952759D01*
X88182232Y-94952762D01*
X88215537Y-94967174D01*
X88226187Y-94972391D01*
X88264940Y-94993695D01*
X88272615Y-94995666D01*
X88272616Y-94995666D01*
X88284562Y-94998733D01*
X88303267Y-95005137D01*
X88321855Y-95013181D01*
X88329678Y-95014420D01*
X88329688Y-95014423D01*
X88365524Y-95020099D01*
X88377144Y-95022505D01*
X88412289Y-95031528D01*
X88419970Y-95033500D01*
X88440224Y-95033500D01*
X88459934Y-95035051D01*
X88479943Y-95038220D01*
X88487835Y-95037474D01*
X88523961Y-95034059D01*
X88535819Y-95033500D01*
X94115500Y-95033500D01*
X94183621Y-95053502D01*
X94230114Y-95107158D01*
X94241500Y-95159500D01*
X94241500Y-95898134D01*
X94248255Y-95960316D01*
X94251029Y-95967715D01*
X94265562Y-96006482D01*
X94270745Y-96077289D01*
X94265562Y-96094942D01*
X94251522Y-96132394D01*
X94247895Y-96147649D01*
X94242369Y-96198514D01*
X94242000Y-96205328D01*
X94242000Y-96327885D01*
X94246475Y-96343124D01*
X94247865Y-96344329D01*
X94255548Y-96346000D01*
X94605014Y-96346000D01*
X94633165Y-96349301D01*
X94639684Y-96351745D01*
X94647532Y-96352598D01*
X94647534Y-96352598D01*
X94698469Y-96358131D01*
X94701866Y-96358500D01*
X96398134Y-96358500D01*
X96401531Y-96358131D01*
X96452466Y-96352598D01*
X96452468Y-96352598D01*
X96460316Y-96351745D01*
X96466835Y-96349301D01*
X96494986Y-96346000D01*
X96839884Y-96346000D01*
X96855123Y-96341525D01*
X96856328Y-96340135D01*
X96857999Y-96332452D01*
X96857999Y-96205331D01*
X96857629Y-96198510D01*
X96852105Y-96147648D01*
X96848479Y-96132396D01*
X96834438Y-96094942D01*
X96829255Y-96024135D01*
X96834438Y-96006482D01*
X96848971Y-95967715D01*
X96851745Y-95960316D01*
X96858500Y-95898134D01*
X96858500Y-95101866D01*
X96851745Y-95039684D01*
X96848973Y-95032289D01*
X96834705Y-94994229D01*
X96834597Y-94992750D01*
X105511524Y-94992750D01*
X105529894Y-95194596D01*
X105587119Y-95389029D01*
X105589972Y-95394486D01*
X105589973Y-95394489D01*
X105594127Y-95402435D01*
X105681019Y-95568645D01*
X105684879Y-95573445D01*
X105684879Y-95573446D01*
X105690729Y-95580722D01*
X105808019Y-95726601D01*
X105963281Y-95856881D01*
X105968673Y-95859845D01*
X105968677Y-95859848D01*
X106135494Y-95951556D01*
X106140891Y-95954523D01*
X106334084Y-96015807D01*
X106340201Y-96016493D01*
X106340205Y-96016494D01*
X106408328Y-96024135D01*
X106491817Y-96033500D01*
X106601004Y-96033500D01*
X106751713Y-96018723D01*
X106945742Y-95960142D01*
X107124698Y-95864990D01*
X107281763Y-95736890D01*
X107294246Y-95721801D01*
X107407027Y-95585472D01*
X107407029Y-95585469D01*
X107410956Y-95580722D01*
X107507356Y-95402435D01*
X107567290Y-95208820D01*
X107578889Y-95098469D01*
X107587832Y-95013378D01*
X107587832Y-95013377D01*
X107588476Y-95007250D01*
X107570106Y-94805404D01*
X107568074Y-94798498D01*
X107514620Y-94616880D01*
X107512881Y-94610971D01*
X107508951Y-94603452D01*
X107421835Y-94436815D01*
X107418981Y-94431355D01*
X107413630Y-94424699D01*
X107295840Y-94278199D01*
X107291981Y-94273399D01*
X107136719Y-94143119D01*
X107131327Y-94140155D01*
X107131323Y-94140152D01*
X106964506Y-94048444D01*
X106959109Y-94045477D01*
X106765916Y-93984193D01*
X106759799Y-93983507D01*
X106759795Y-93983506D01*
X106685652Y-93975190D01*
X106608183Y-93966500D01*
X106498996Y-93966500D01*
X106348287Y-93981277D01*
X106154258Y-94039858D01*
X105975302Y-94135010D01*
X105818237Y-94263110D01*
X105814310Y-94267857D01*
X105814308Y-94267859D01*
X105692973Y-94414528D01*
X105692971Y-94414531D01*
X105689044Y-94419278D01*
X105592644Y-94597565D01*
X105532710Y-94791180D01*
X105532066Y-94797305D01*
X105532066Y-94797306D01*
X105517363Y-94937199D01*
X105511524Y-94992750D01*
X96834597Y-94992750D01*
X96829522Y-94923422D01*
X96834705Y-94905771D01*
X96848973Y-94867711D01*
X96848973Y-94867709D01*
X96851745Y-94860316D01*
X96858500Y-94798134D01*
X96858500Y-94001866D01*
X96851745Y-93939684D01*
X96834438Y-93893518D01*
X96829255Y-93822711D01*
X96834438Y-93805058D01*
X96848478Y-93767606D01*
X96852105Y-93752351D01*
X96857631Y-93701486D01*
X96858000Y-93694672D01*
X96858000Y-93572115D01*
X96853525Y-93556876D01*
X96852135Y-93555671D01*
X96844452Y-93554000D01*
X96494986Y-93554000D01*
X96466835Y-93550699D01*
X96460316Y-93548255D01*
X96452468Y-93547402D01*
X96452466Y-93547402D01*
X96401531Y-93541869D01*
X96398134Y-93541500D01*
X94701866Y-93541500D01*
X94698469Y-93541869D01*
X94647534Y-93547402D01*
X94647532Y-93547402D01*
X94639684Y-93548255D01*
X94633165Y-93550699D01*
X94605014Y-93554000D01*
X94260116Y-93554000D01*
X94244877Y-93558475D01*
X94243672Y-93559865D01*
X94242001Y-93567548D01*
X94242001Y-93640500D01*
X94221999Y-93708621D01*
X94168343Y-93755114D01*
X94116001Y-93766500D01*
X88814594Y-93766500D01*
X88746473Y-93746498D01*
X88725499Y-93729595D01*
X83274688Y-88278783D01*
X83240662Y-88216471D01*
X83237783Y-88189688D01*
X83237783Y-74465572D01*
X83238310Y-74454389D01*
X83239985Y-74446896D01*
X83237845Y-74378819D01*
X83237783Y-74374860D01*
X83237783Y-74346949D01*
X83237278Y-74342949D01*
X83236345Y-74331106D01*
X83236322Y-74330358D01*
X83234956Y-74286916D01*
X83234336Y-74284783D01*
X83233500Y-74274155D01*
X83233500Y-69146469D01*
X83235641Y-69129517D01*
X83234818Y-69129413D01*
X83235811Y-69121551D01*
X83237783Y-69113872D01*
X83237783Y-69093618D01*
X83239334Y-69073907D01*
X83241263Y-69061728D01*
X83242503Y-69053899D01*
X83238342Y-69009880D01*
X83237783Y-68998023D01*
X83237783Y-68747423D01*
X83257785Y-68679302D01*
X83311441Y-68632809D01*
X83381715Y-68622705D01*
X83446295Y-68652199D01*
X83472901Y-68684422D01*
X83560960Y-68836944D01*
X83634137Y-68918215D01*
X83664853Y-68982221D01*
X83666500Y-69002524D01*
X83666500Y-87921233D01*
X83665973Y-87932416D01*
X83664298Y-87939909D01*
X83664547Y-87947835D01*
X83664547Y-87947836D01*
X83666438Y-88007986D01*
X83666500Y-88011945D01*
X83666500Y-88039856D01*
X83666997Y-88043790D01*
X83666997Y-88043791D01*
X83667005Y-88043856D01*
X83667938Y-88055693D01*
X83669327Y-88099889D01*
X83674534Y-88117811D01*
X83674978Y-88119339D01*
X83678987Y-88138700D01*
X83681526Y-88158797D01*
X83684445Y-88166168D01*
X83684445Y-88166170D01*
X83697804Y-88199912D01*
X83701649Y-88211142D01*
X83711771Y-88245983D01*
X83713982Y-88253593D01*
X83718015Y-88260412D01*
X83718017Y-88260417D01*
X83724293Y-88271028D01*
X83732988Y-88288776D01*
X83740448Y-88307617D01*
X83745110Y-88314033D01*
X83745110Y-88314034D01*
X83766436Y-88343387D01*
X83772952Y-88353307D01*
X83778980Y-88363499D01*
X83795458Y-88391362D01*
X83809779Y-88405683D01*
X83822619Y-88420716D01*
X83834528Y-88437107D01*
X83853756Y-88453014D01*
X83868605Y-88465298D01*
X83877384Y-88473288D01*
X87996348Y-92592253D01*
X88003888Y-92600539D01*
X88008000Y-92607018D01*
X88013777Y-92612443D01*
X88057651Y-92653643D01*
X88060493Y-92656398D01*
X88080230Y-92676135D01*
X88083427Y-92678615D01*
X88092447Y-92686318D01*
X88124679Y-92716586D01*
X88131625Y-92720405D01*
X88131628Y-92720407D01*
X88142434Y-92726348D01*
X88158953Y-92737199D01*
X88174959Y-92749614D01*
X88182228Y-92752759D01*
X88182232Y-92752762D01*
X88215537Y-92767174D01*
X88226187Y-92772391D01*
X88264940Y-92793695D01*
X88272615Y-92795666D01*
X88272616Y-92795666D01*
X88284562Y-92798733D01*
X88303267Y-92805137D01*
X88321855Y-92813181D01*
X88329678Y-92814420D01*
X88329688Y-92814423D01*
X88365524Y-92820099D01*
X88377144Y-92822505D01*
X88412289Y-92831528D01*
X88419970Y-92833500D01*
X88440224Y-92833500D01*
X88459934Y-92835051D01*
X88479943Y-92838220D01*
X88487835Y-92837474D01*
X88523961Y-92834059D01*
X88535819Y-92833500D01*
X94116000Y-92833500D01*
X94184121Y-92853502D01*
X94230614Y-92907158D01*
X94242000Y-92959500D01*
X94242000Y-93027885D01*
X94246475Y-93043124D01*
X94247865Y-93044329D01*
X94255548Y-93046000D01*
X94605014Y-93046000D01*
X94633165Y-93049301D01*
X94639684Y-93051745D01*
X94647532Y-93052598D01*
X94647534Y-93052598D01*
X94698469Y-93058131D01*
X94701866Y-93058500D01*
X96398134Y-93058500D01*
X96401531Y-93058131D01*
X96452466Y-93052598D01*
X96452468Y-93052598D01*
X96460316Y-93051745D01*
X96466835Y-93049301D01*
X96494986Y-93046000D01*
X96839884Y-93046000D01*
X96855123Y-93041525D01*
X96856328Y-93040135D01*
X96857999Y-93032452D01*
X96857999Y-92905331D01*
X96857629Y-92898510D01*
X96852105Y-92847648D01*
X96848479Y-92832396D01*
X96834438Y-92794942D01*
X96829255Y-92724135D01*
X96834438Y-92706482D01*
X96851745Y-92660316D01*
X96858500Y-92598134D01*
X96858500Y-91801866D01*
X96851745Y-91739684D01*
X96834705Y-91694229D01*
X96829522Y-91623422D01*
X96834705Y-91605771D01*
X96848973Y-91567711D01*
X96848973Y-91567709D01*
X96851745Y-91560316D01*
X96853804Y-91541368D01*
X96858131Y-91501531D01*
X96858500Y-91498134D01*
X96858500Y-90701866D01*
X96851745Y-90639684D01*
X96834705Y-90594229D01*
X96829522Y-90523422D01*
X96834705Y-90505771D01*
X96848973Y-90467711D01*
X96848973Y-90467709D01*
X96851745Y-90460316D01*
X96858500Y-90398134D01*
X96858500Y-89601866D01*
X96851745Y-89539684D01*
X96834705Y-89494229D01*
X96829522Y-89423422D01*
X96834705Y-89405771D01*
X96848973Y-89367711D01*
X96848973Y-89367709D01*
X96851745Y-89360316D01*
X96853804Y-89341368D01*
X96858131Y-89301531D01*
X96858500Y-89298134D01*
X96858500Y-88501866D01*
X96856177Y-88480484D01*
X96852598Y-88447534D01*
X96852598Y-88447532D01*
X96851745Y-88439684D01*
X96838999Y-88405683D01*
X96834705Y-88394229D01*
X96829522Y-88323422D01*
X96834705Y-88305771D01*
X96848973Y-88267711D01*
X96848973Y-88267709D01*
X96851745Y-88260316D01*
X96858500Y-88198134D01*
X96858500Y-87401866D01*
X96851745Y-87339684D01*
X96800615Y-87203295D01*
X96713261Y-87086739D01*
X96596705Y-86999385D01*
X96579006Y-86992750D01*
X105511524Y-86992750D01*
X105529894Y-87194596D01*
X105531632Y-87200502D01*
X105531633Y-87200506D01*
X105561899Y-87303339D01*
X105587119Y-87389029D01*
X105589972Y-87394486D01*
X105589973Y-87394489D01*
X105592054Y-87398469D01*
X105681019Y-87568645D01*
X105684879Y-87573445D01*
X105684879Y-87573446D01*
X105686420Y-87575362D01*
X105808019Y-87726601D01*
X105963281Y-87856881D01*
X105968673Y-87859845D01*
X105968677Y-87859848D01*
X106096389Y-87930058D01*
X106140891Y-87954523D01*
X106334084Y-88015807D01*
X106340201Y-88016493D01*
X106340205Y-88016494D01*
X106414348Y-88024810D01*
X106491817Y-88033500D01*
X106601004Y-88033500D01*
X106751713Y-88018723D01*
X106945742Y-87960142D01*
X107124698Y-87864990D01*
X107281763Y-87736890D01*
X107294246Y-87721801D01*
X107407027Y-87585472D01*
X107407029Y-87585469D01*
X107410956Y-87580722D01*
X107507356Y-87402435D01*
X107546504Y-87275970D01*
X107565468Y-87214707D01*
X107565469Y-87214704D01*
X107567290Y-87208820D01*
X107575382Y-87131836D01*
X107587832Y-87013378D01*
X107587832Y-87013377D01*
X107588476Y-87007250D01*
X107570106Y-86805404D01*
X107512881Y-86610971D01*
X107508951Y-86603452D01*
X107421835Y-86436815D01*
X107418981Y-86431355D01*
X107413630Y-86424699D01*
X107295840Y-86278199D01*
X107291981Y-86273399D01*
X107136719Y-86143119D01*
X107131327Y-86140155D01*
X107131323Y-86140152D01*
X106964506Y-86048444D01*
X106959109Y-86045477D01*
X106765916Y-85984193D01*
X106759799Y-85983507D01*
X106759795Y-85983506D01*
X106685652Y-85975190D01*
X106608183Y-85966500D01*
X106498996Y-85966500D01*
X106348287Y-85981277D01*
X106154258Y-86039858D01*
X105975302Y-86135010D01*
X105818237Y-86263110D01*
X105814310Y-86267857D01*
X105814308Y-86267859D01*
X105692973Y-86414528D01*
X105692971Y-86414531D01*
X105689044Y-86419278D01*
X105592644Y-86597565D01*
X105532710Y-86791180D01*
X105532066Y-86797305D01*
X105532066Y-86797306D01*
X105519003Y-86921595D01*
X105511524Y-86992750D01*
X96579006Y-86992750D01*
X96460316Y-86948255D01*
X96398134Y-86941500D01*
X94701866Y-86941500D01*
X94639684Y-86948255D01*
X94503295Y-86999385D01*
X94386739Y-87086739D01*
X94384570Y-87083845D01*
X94337374Y-87109617D01*
X94266559Y-87104552D01*
X94221495Y-87075591D01*
X93470404Y-86324499D01*
X93436379Y-86262187D01*
X93433500Y-86235404D01*
X93433500Y-84048134D01*
X95041500Y-84048134D01*
X95048255Y-84110316D01*
X95099385Y-84246705D01*
X95186739Y-84363261D01*
X95303295Y-84450615D01*
X95439684Y-84501745D01*
X95501866Y-84508500D01*
X97098134Y-84508500D01*
X97160316Y-84501745D01*
X97296705Y-84450615D01*
X97413261Y-84363261D01*
X97500615Y-84246705D01*
X97551745Y-84110316D01*
X97558500Y-84048134D01*
X97558500Y-82948134D01*
X104541500Y-82948134D01*
X104548255Y-83010316D01*
X104599385Y-83146705D01*
X104686739Y-83263261D01*
X104803295Y-83350615D01*
X104939684Y-83401745D01*
X105001866Y-83408500D01*
X107298134Y-83408500D01*
X107360316Y-83401745D01*
X107496705Y-83350615D01*
X107613261Y-83263261D01*
X107700615Y-83146705D01*
X107751745Y-83010316D01*
X107758500Y-82948134D01*
X107758500Y-81651866D01*
X107751745Y-81589684D01*
X107700615Y-81453295D01*
X107613261Y-81336739D01*
X107496705Y-81249385D01*
X107360316Y-81198255D01*
X107298134Y-81191500D01*
X105001866Y-81191500D01*
X104939684Y-81198255D01*
X104803295Y-81249385D01*
X104686739Y-81336739D01*
X104599385Y-81453295D01*
X104548255Y-81589684D01*
X104541500Y-81651866D01*
X104541500Y-82948134D01*
X97558500Y-82948134D01*
X97558500Y-82351866D01*
X97551745Y-82289684D01*
X97500615Y-82153295D01*
X97413261Y-82036739D01*
X97296705Y-81949385D01*
X97160316Y-81898255D01*
X97098134Y-81891500D01*
X95501866Y-81891500D01*
X95439684Y-81898255D01*
X95303295Y-81949385D01*
X95186739Y-82036739D01*
X95099385Y-82153295D01*
X95048255Y-82289684D01*
X95041500Y-82351866D01*
X95041500Y-84048134D01*
X93433500Y-84048134D01*
X93433500Y-75414594D01*
X93453502Y-75346473D01*
X93470405Y-75325499D01*
X95092253Y-73703652D01*
X95100539Y-73696112D01*
X95107018Y-73692000D01*
X95153644Y-73642348D01*
X95156398Y-73639507D01*
X95176135Y-73619770D01*
X95178615Y-73616573D01*
X95186320Y-73607551D01*
X95211159Y-73581100D01*
X95216586Y-73575321D01*
X95220405Y-73568375D01*
X95220407Y-73568372D01*
X95226348Y-73557566D01*
X95237199Y-73541047D01*
X95244758Y-73531301D01*
X95249614Y-73525041D01*
X95252759Y-73517772D01*
X95252762Y-73517768D01*
X95267174Y-73484463D01*
X95272391Y-73473813D01*
X95293695Y-73435060D01*
X95298733Y-73415437D01*
X95305137Y-73396734D01*
X95310033Y-73385420D01*
X95310033Y-73385419D01*
X95313181Y-73378145D01*
X95314420Y-73370322D01*
X95314423Y-73370312D01*
X95320099Y-73334476D01*
X95322505Y-73322856D01*
X95331528Y-73287711D01*
X95331528Y-73287710D01*
X95333500Y-73280030D01*
X95333500Y-73259776D01*
X95335051Y-73240065D01*
X95336980Y-73227886D01*
X95338220Y-73220057D01*
X95334059Y-73176038D01*
X95333500Y-73164181D01*
X95333500Y-64478767D01*
X95334027Y-64467584D01*
X95335702Y-64460091D01*
X95333562Y-64392014D01*
X95333500Y-64388055D01*
X95333500Y-64360144D01*
X95332995Y-64356144D01*
X95332062Y-64344301D01*
X95330922Y-64308029D01*
X95330673Y-64300110D01*
X95325022Y-64280658D01*
X95321014Y-64261306D01*
X95319467Y-64249063D01*
X95318474Y-64241203D01*
X95315556Y-64233832D01*
X95302200Y-64200097D01*
X95298355Y-64188870D01*
X95297721Y-64186687D01*
X95286018Y-64146407D01*
X95275707Y-64128972D01*
X95267012Y-64111224D01*
X95259552Y-64092383D01*
X95233564Y-64056613D01*
X95227048Y-64046693D01*
X95208580Y-64015465D01*
X95208578Y-64015462D01*
X95204542Y-64008638D01*
X95190221Y-63994317D01*
X95177380Y-63979283D01*
X95170132Y-63969307D01*
X95165472Y-63962893D01*
X95133587Y-63936516D01*
X95131407Y-63934712D01*
X95122626Y-63926722D01*
X94533647Y-63337742D01*
X94526113Y-63329463D01*
X94522000Y-63322982D01*
X94472348Y-63276356D01*
X94469507Y-63273602D01*
X94449770Y-63253865D01*
X94446573Y-63251385D01*
X94437551Y-63243680D01*
X94424122Y-63231069D01*
X94405321Y-63213414D01*
X94398375Y-63209595D01*
X94398372Y-63209593D01*
X94387566Y-63203652D01*
X94371047Y-63192801D01*
X94367410Y-63189980D01*
X94355041Y-63180386D01*
X94347772Y-63177241D01*
X94347768Y-63177238D01*
X94314463Y-63162826D01*
X94303813Y-63157609D01*
X94265060Y-63136305D01*
X94245437Y-63131267D01*
X94226734Y-63124863D01*
X94215420Y-63119967D01*
X94215419Y-63119967D01*
X94208145Y-63116819D01*
X94200322Y-63115580D01*
X94200312Y-63115577D01*
X94164476Y-63109901D01*
X94152856Y-63107495D01*
X94117711Y-63098472D01*
X94117710Y-63098472D01*
X94110030Y-63096500D01*
X94089776Y-63096500D01*
X94070065Y-63094949D01*
X94057886Y-63093020D01*
X94050057Y-63091780D01*
X94042165Y-63092526D01*
X94006039Y-63095941D01*
X93994181Y-63096500D01*
X93664382Y-63096500D01*
X93596261Y-63076498D01*
X93549768Y-63022842D01*
X93546401Y-63014731D01*
X93537769Y-62991707D01*
X93537767Y-62991703D01*
X93534615Y-62983295D01*
X93447261Y-62866739D01*
X93330705Y-62779385D01*
X93194316Y-62728255D01*
X93132134Y-62721500D01*
X90923902Y-62721500D01*
X90855781Y-62701498D01*
X90809288Y-62647842D01*
X90799184Y-62577568D01*
X90828678Y-62512988D01*
X90834807Y-62506405D01*
X91105807Y-62235405D01*
X91168119Y-62201379D01*
X91194902Y-62198500D01*
X93132134Y-62198500D01*
X93194316Y-62191745D01*
X93330705Y-62140615D01*
X93447261Y-62053261D01*
X93534615Y-61936705D01*
X93585745Y-61800316D01*
X93592500Y-61738134D01*
X93592500Y-60641866D01*
X93585745Y-60579684D01*
X93534615Y-60443295D01*
X93447261Y-60326739D01*
X93330705Y-60239385D01*
X93194316Y-60188255D01*
X93132134Y-60181500D01*
X90786821Y-60181500D01*
X90773214Y-60180763D01*
X90741716Y-60177341D01*
X90741711Y-60177341D01*
X90735590Y-60176676D01*
X90688874Y-60180763D01*
X90685925Y-60181021D01*
X90674944Y-60181500D01*
X90035866Y-60181500D01*
X89973684Y-60188255D01*
X89837295Y-60239385D01*
X89720739Y-60326739D01*
X89633385Y-60443295D01*
X89582255Y-60579684D01*
X89575500Y-60641866D01*
X89575500Y-60861053D01*
X89555498Y-60929174D01*
X89538600Y-60950143D01*
X88767093Y-61721651D01*
X88704783Y-61755674D01*
X88633968Y-61750610D01*
X88577132Y-61708063D01*
X88552321Y-61641543D01*
X88552000Y-61632554D01*
X88552000Y-61462115D01*
X88547525Y-61446876D01*
X88546135Y-61445671D01*
X88538452Y-61444000D01*
X86816115Y-61444000D01*
X86800876Y-61448475D01*
X86799671Y-61449865D01*
X86798000Y-61457548D01*
X86798000Y-62179884D01*
X86802475Y-62195123D01*
X86803865Y-62196328D01*
X86811548Y-62197999D01*
X87982670Y-62197999D01*
X88050791Y-62218001D01*
X88097284Y-62271657D01*
X88107388Y-62341931D01*
X88079192Y-62404988D01*
X88058686Y-62429426D01*
X88055528Y-62433047D01*
X88053885Y-62434859D01*
X88051691Y-62437053D01*
X88024358Y-62470327D01*
X88023696Y-62471125D01*
X87963846Y-62542452D01*
X87961278Y-62547122D01*
X87957897Y-62551239D01*
X87943780Y-62577568D01*
X87914023Y-62633064D01*
X87913394Y-62634224D01*
X87901312Y-62656201D01*
X87850966Y-62706260D01*
X87790897Y-62721500D01*
X84995866Y-62721500D01*
X84933684Y-62728255D01*
X84797295Y-62779385D01*
X84680739Y-62866739D01*
X84593385Y-62983295D01*
X84542255Y-63119684D01*
X84541402Y-63127537D01*
X84541400Y-63127545D01*
X84541156Y-63129793D01*
X84540478Y-63131425D01*
X84539575Y-63135222D01*
X84538961Y-63135076D01*
X84513911Y-63195353D01*
X84490783Y-63215346D01*
X84491727Y-63216563D01*
X84485466Y-63221420D01*
X84478638Y-63225458D01*
X84464317Y-63239779D01*
X84449284Y-63252619D01*
X84432893Y-63264528D01*
X84427840Y-63270636D01*
X84404708Y-63298598D01*
X84396718Y-63307378D01*
X84349501Y-63354595D01*
X84287189Y-63388621D01*
X84260406Y-63391500D01*
X84204513Y-63391500D01*
X84198061Y-63392872D01*
X84198056Y-63392872D01*
X84111113Y-63411353D01*
X84017712Y-63431206D01*
X84011682Y-63433891D01*
X84011681Y-63433891D01*
X83849278Y-63506197D01*
X83849276Y-63506198D01*
X83843248Y-63508882D01*
X83688747Y-63621134D01*
X83560960Y-63763056D01*
X83465473Y-63928444D01*
X83406458Y-64110072D01*
X83405768Y-64116633D01*
X83405768Y-64116635D01*
X83403356Y-64139582D01*
X83386496Y-64300000D01*
X83406458Y-64489928D01*
X83465473Y-64671556D01*
X83560960Y-64836944D01*
X83565378Y-64841851D01*
X83565379Y-64841852D01*
X83684325Y-64973955D01*
X83688747Y-64978866D01*
X83843248Y-65091118D01*
X83849276Y-65093802D01*
X83849278Y-65093803D01*
X84001540Y-65161594D01*
X84017712Y-65168794D01*
X84109776Y-65188363D01*
X84198056Y-65207128D01*
X84198061Y-65207128D01*
X84204513Y-65208500D01*
X84395487Y-65208500D01*
X84401939Y-65207128D01*
X84401944Y-65207128D01*
X84490224Y-65188363D01*
X84582288Y-65168794D01*
X84588320Y-65166108D01*
X84594600Y-65164068D01*
X84595317Y-65166274D01*
X84655140Y-65158255D01*
X84719436Y-65188363D01*
X84757248Y-65248453D01*
X84756571Y-65319446D01*
X84717619Y-65378803D01*
X84711586Y-65383621D01*
X84680739Y-65406739D01*
X84675358Y-65413919D01*
X84598767Y-65516113D01*
X84598765Y-65516116D01*
X84593385Y-65523295D01*
X84581642Y-65554619D01*
X84580952Y-65556460D01*
X84538311Y-65613225D01*
X84466931Y-65638169D01*
X84438030Y-65639078D01*
X84430110Y-65639327D01*
X84412454Y-65644456D01*
X84410658Y-65644978D01*
X84391306Y-65648986D01*
X84384235Y-65649880D01*
X84371203Y-65651526D01*
X84363834Y-65654443D01*
X84363832Y-65654444D01*
X84330097Y-65667800D01*
X84318869Y-65671645D01*
X84276407Y-65683982D01*
X84269585Y-65688016D01*
X84269579Y-65688019D01*
X84258968Y-65694294D01*
X84241218Y-65702990D01*
X84229756Y-65707528D01*
X84229751Y-65707531D01*
X84222383Y-65710448D01*
X84215968Y-65715109D01*
X84186625Y-65736427D01*
X84176707Y-65742943D01*
X84158019Y-65753995D01*
X84138637Y-65765458D01*
X84124313Y-65779782D01*
X84109281Y-65792621D01*
X84092893Y-65804528D01*
X84064712Y-65838593D01*
X84056722Y-65847373D01*
X82207747Y-67696348D01*
X82199461Y-67703888D01*
X82192982Y-67708000D01*
X82187557Y-67713777D01*
X82146357Y-67757651D01*
X82143602Y-67760493D01*
X82123865Y-67780230D01*
X82121385Y-67783427D01*
X82113682Y-67792447D01*
X82083414Y-67824679D01*
X82079595Y-67831625D01*
X82079593Y-67831628D01*
X82073652Y-67842434D01*
X82062801Y-67858953D01*
X82050386Y-67874959D01*
X82047241Y-67882228D01*
X82047238Y-67882232D01*
X82032826Y-67915537D01*
X82027609Y-67926187D01*
X82006305Y-67964940D01*
X82004334Y-67972615D01*
X82004334Y-67972616D01*
X82001267Y-67984562D01*
X81994863Y-68003266D01*
X81986819Y-68021855D01*
X81985580Y-68029678D01*
X81985577Y-68029688D01*
X81979901Y-68065524D01*
X81977495Y-68077144D01*
X81966500Y-68119970D01*
X81966500Y-68140224D01*
X81964949Y-68159934D01*
X81961780Y-68179943D01*
X81962526Y-68187835D01*
X81965941Y-68223961D01*
X81966500Y-68235819D01*
X81966500Y-68350586D01*
X81965973Y-68361769D01*
X81964298Y-68369262D01*
X81964547Y-68377188D01*
X81964547Y-68377189D01*
X81966438Y-68437339D01*
X81966500Y-68441298D01*
X81966500Y-68469209D01*
X81966997Y-68473143D01*
X81966997Y-68473144D01*
X81967005Y-68473209D01*
X81967938Y-68485046D01*
X81969327Y-68529242D01*
X81969947Y-68531375D01*
X81970783Y-68542003D01*
X81970783Y-68925498D01*
X81968642Y-68942450D01*
X81969465Y-68942554D01*
X81968472Y-68950416D01*
X81966500Y-68958095D01*
X81966500Y-68978349D01*
X81964949Y-68998059D01*
X81961780Y-69018068D01*
X74572786Y-69018068D01*
X74572786Y-61734669D01*
X84536001Y-61734669D01*
X84536371Y-61741490D01*
X84541895Y-61792352D01*
X84545521Y-61807604D01*
X84590676Y-61928054D01*
X84599214Y-61943649D01*
X84675715Y-62045724D01*
X84688276Y-62058285D01*
X84790351Y-62134786D01*
X84805946Y-62143324D01*
X84926394Y-62188478D01*
X84941649Y-62192105D01*
X84992514Y-62197631D01*
X84999328Y-62198000D01*
X86271885Y-62198000D01*
X86287124Y-62193525D01*
X86288329Y-62192135D01*
X86290000Y-62184452D01*
X86290000Y-61462115D01*
X86285525Y-61446876D01*
X86284135Y-61445671D01*
X86276452Y-61444000D01*
X84554116Y-61444000D01*
X84538877Y-61448475D01*
X84537672Y-61449865D01*
X84536001Y-61457548D01*
X84536001Y-61734669D01*
X74572786Y-61734669D01*
X74572786Y-60917885D01*
X84536000Y-60917885D01*
X84540475Y-60933124D01*
X84541865Y-60934329D01*
X84549548Y-60936000D01*
X86271885Y-60936000D01*
X86287124Y-60931525D01*
X86288329Y-60930135D01*
X86290000Y-60922452D01*
X86290000Y-60917885D01*
X86798000Y-60917885D01*
X86802475Y-60933124D01*
X86803865Y-60934329D01*
X86811548Y-60936000D01*
X88533884Y-60936000D01*
X88549123Y-60931525D01*
X88550328Y-60930135D01*
X88551999Y-60922452D01*
X88551999Y-60645331D01*
X88551629Y-60638510D01*
X88546105Y-60587648D01*
X88542479Y-60572396D01*
X88497324Y-60451946D01*
X88488786Y-60436351D01*
X88412285Y-60334276D01*
X88399724Y-60321715D01*
X88297649Y-60245214D01*
X88282054Y-60236676D01*
X88161606Y-60191522D01*
X88146351Y-60187895D01*
X88095486Y-60182369D01*
X88088672Y-60182000D01*
X86816115Y-60182000D01*
X86800876Y-60186475D01*
X86799671Y-60187865D01*
X86798000Y-60195548D01*
X86798000Y-60917885D01*
X86290000Y-60917885D01*
X86290000Y-60200116D01*
X86285525Y-60184877D01*
X86284135Y-60183672D01*
X86276452Y-60182001D01*
X84999331Y-60182001D01*
X84992510Y-60182371D01*
X84941648Y-60187895D01*
X84926396Y-60191521D01*
X84805946Y-60236676D01*
X84790351Y-60245214D01*
X84688276Y-60321715D01*
X84675715Y-60334276D01*
X84599214Y-60436351D01*
X84590676Y-60451946D01*
X84545522Y-60572394D01*
X84541895Y-60587649D01*
X84536369Y-60638514D01*
X84536000Y-60645328D01*
X84536000Y-60917885D01*
X74572786Y-60917885D01*
X74572786Y-55304500D01*
X74592788Y-55236379D01*
X74646444Y-55189886D01*
X74698786Y-55178500D01*
X95280714Y-55178500D01*
X95348835Y-55198502D01*
G37*
%TD.AperFunction*%
%TA.AperFunction,Conductor*%
G36*
X84669117Y-67130953D02*
G01*
X84700648Y-67148182D01*
X84797295Y-67220615D01*
X84933684Y-67271745D01*
X84995866Y-67278500D01*
X87665500Y-67278500D01*
X87733621Y-67298502D01*
X87780114Y-67352158D01*
X87791500Y-67404500D01*
X87791500Y-67676000D01*
X87771498Y-67744121D01*
X87717842Y-67790614D01*
X87665500Y-67802000D01*
X86816115Y-67802000D01*
X86800876Y-67806475D01*
X86799671Y-67807865D01*
X86798000Y-67815548D01*
X86798000Y-69799884D01*
X86802475Y-69815123D01*
X86803865Y-69816328D01*
X86811548Y-69817999D01*
X87665500Y-69817999D01*
X87733621Y-69838001D01*
X87780114Y-69891657D01*
X87791500Y-69943999D01*
X87791500Y-88104204D01*
X87790763Y-88117811D01*
X87786676Y-88155435D01*
X87787213Y-88161570D01*
X87791050Y-88205435D01*
X87791379Y-88210261D01*
X87791500Y-88212733D01*
X87791500Y-88215816D01*
X87791801Y-88218884D01*
X87795690Y-88258553D01*
X87795812Y-88259866D01*
X87799345Y-88300246D01*
X87803913Y-88352460D01*
X87805400Y-88357579D01*
X87805920Y-88362880D01*
X87832791Y-88451881D01*
X87833126Y-88453014D01*
X87850915Y-88514241D01*
X87859091Y-88542383D01*
X87861544Y-88547115D01*
X87863084Y-88552216D01*
X87864759Y-88555367D01*
X87868877Y-88576180D01*
X87868896Y-88576175D01*
X87878475Y-88608798D01*
X87887538Y-88616651D01*
X87916889Y-88653888D01*
X87950108Y-88717973D01*
X87953431Y-88722136D01*
X87955934Y-88726843D01*
X88014755Y-88798965D01*
X88015446Y-88799821D01*
X88046738Y-88839020D01*
X88049242Y-88841524D01*
X88049884Y-88842242D01*
X88053585Y-88846575D01*
X88080935Y-88880109D01*
X88085682Y-88884036D01*
X88085684Y-88884038D01*
X88116262Y-88909334D01*
X88125042Y-88917324D01*
X90559124Y-91351405D01*
X90593149Y-91413717D01*
X90588085Y-91484532D01*
X90545538Y-91541368D01*
X90479018Y-91566179D01*
X90470029Y-91566500D01*
X88814594Y-91566500D01*
X88746473Y-91546498D01*
X88725499Y-91529595D01*
X85264680Y-88068775D01*
X86834937Y-88068775D01*
X86836688Y-88078359D01*
X86878357Y-88221784D01*
X86884604Y-88236220D01*
X86959876Y-88363499D01*
X86969516Y-88375926D01*
X87074074Y-88480484D01*
X87086501Y-88490124D01*
X87213780Y-88565396D01*
X87228216Y-88571643D01*
X87348605Y-88606619D01*
X87362705Y-88606579D01*
X87366000Y-88599309D01*
X87366000Y-88072115D01*
X87361525Y-88056876D01*
X87360135Y-88055671D01*
X87352452Y-88054000D01*
X86851576Y-88054000D01*
X86836781Y-88058344D01*
X86834937Y-88068775D01*
X85264680Y-88068775D01*
X84970405Y-87774500D01*
X84936379Y-87712188D01*
X84933500Y-87685405D01*
X84933500Y-87529609D01*
X86835232Y-87529609D01*
X86838052Y-87543031D01*
X86849513Y-87546000D01*
X87347885Y-87546000D01*
X87363124Y-87541525D01*
X87364329Y-87540135D01*
X87366000Y-87532452D01*
X87366000Y-87006442D01*
X87362027Y-86992911D01*
X87354129Y-86991776D01*
X87228216Y-87028357D01*
X87213780Y-87034604D01*
X87086501Y-87109876D01*
X87074074Y-87119516D01*
X86969516Y-87224074D01*
X86959876Y-87236501D01*
X86884604Y-87363780D01*
X86878357Y-87378216D01*
X86836688Y-87521641D01*
X86835232Y-87529609D01*
X84933500Y-87529609D01*
X84933500Y-69944000D01*
X84953502Y-69875879D01*
X85007158Y-69829386D01*
X85059500Y-69818000D01*
X86271885Y-69818000D01*
X86287124Y-69813525D01*
X86288329Y-69812135D01*
X86290000Y-69804452D01*
X86290000Y-67820116D01*
X86285525Y-67804877D01*
X86284135Y-67803672D01*
X86276452Y-67802001D01*
X85130204Y-67802001D01*
X85062083Y-67781999D01*
X85036568Y-67760311D01*
X84960655Y-67676000D01*
X84911253Y-67621134D01*
X84756752Y-67508882D01*
X84750724Y-67506198D01*
X84750722Y-67506197D01*
X84588319Y-67433891D01*
X84588318Y-67433891D01*
X84582288Y-67431206D01*
X84575833Y-67429834D01*
X84575824Y-67429831D01*
X84547361Y-67423781D01*
X84484888Y-67390053D01*
X84450567Y-67327903D01*
X84455295Y-67257064D01*
X84484464Y-67211440D01*
X84535990Y-67159914D01*
X84598302Y-67125888D01*
X84669117Y-67130953D01*
G37*
%TD.AperFunction*%
%TA.AperFunction,Conductor*%
G36*
X90892621Y-69838502D02*
G01*
X90939114Y-69892158D01*
X90950500Y-69944500D01*
X90950500Y-87105233D01*
X90949973Y-87116416D01*
X90948298Y-87123909D01*
X90948547Y-87131835D01*
X90948547Y-87131836D01*
X90950438Y-87191986D01*
X90950500Y-87195945D01*
X90950500Y-87223856D01*
X90950997Y-87227790D01*
X90950997Y-87227791D01*
X90951005Y-87227856D01*
X90951938Y-87239693D01*
X90953327Y-87283889D01*
X90958978Y-87303339D01*
X90962987Y-87322700D01*
X90965526Y-87342797D01*
X90968445Y-87350168D01*
X90968445Y-87350170D01*
X90981804Y-87383912D01*
X90985649Y-87395142D01*
X90987768Y-87402435D01*
X90997982Y-87437593D01*
X91002015Y-87444412D01*
X91002017Y-87444417D01*
X91008293Y-87455028D01*
X91016988Y-87472776D01*
X91024448Y-87491617D01*
X91029110Y-87498033D01*
X91029110Y-87498034D01*
X91050436Y-87527387D01*
X91056952Y-87537307D01*
X91071624Y-87562115D01*
X91079458Y-87575362D01*
X91093779Y-87589683D01*
X91106619Y-87604716D01*
X91118528Y-87621107D01*
X91124634Y-87626158D01*
X91152605Y-87649298D01*
X91161384Y-87657288D01*
X92655501Y-89151405D01*
X92689527Y-89213717D01*
X92684462Y-89284532D01*
X92641915Y-89341368D01*
X92575395Y-89366179D01*
X92566406Y-89366500D01*
X92114595Y-89366500D01*
X92046474Y-89346498D01*
X92025500Y-89329595D01*
X90294925Y-87599020D01*
X90260899Y-87536708D01*
X90258020Y-87509925D01*
X90258020Y-69944500D01*
X90278022Y-69876379D01*
X90331678Y-69829886D01*
X90384020Y-69818500D01*
X90824500Y-69818500D01*
X90892621Y-69838502D01*
G37*
%TD.AperFunction*%
%TA.AperFunction,Conductor*%
G36*
X93783526Y-64383502D02*
G01*
X93804501Y-64400405D01*
X94029596Y-64625501D01*
X94063621Y-64687813D01*
X94066500Y-64714596D01*
X94066500Y-72885406D01*
X94046498Y-72953527D01*
X94029595Y-72974501D01*
X92432595Y-74571500D01*
X92370283Y-74605526D01*
X92299467Y-74600461D01*
X92242632Y-74557914D01*
X92217821Y-74491394D01*
X92217500Y-74482405D01*
X92217500Y-69944500D01*
X92237502Y-69876379D01*
X92291158Y-69829886D01*
X92343500Y-69818500D01*
X93132134Y-69818500D01*
X93194316Y-69811745D01*
X93330705Y-69760615D01*
X93447261Y-69673261D01*
X93534615Y-69556705D01*
X93585745Y-69420316D01*
X93592500Y-69358134D01*
X93592500Y-68261866D01*
X93585745Y-68199684D01*
X93534615Y-68063295D01*
X93447261Y-67946739D01*
X93330705Y-67859385D01*
X93194316Y-67808255D01*
X93132134Y-67801500D01*
X91252594Y-67801500D01*
X91184473Y-67781498D01*
X91137980Y-67727842D01*
X91127876Y-67657568D01*
X91157370Y-67592988D01*
X91163499Y-67586405D01*
X91434499Y-67315405D01*
X91496811Y-67281379D01*
X91523594Y-67278500D01*
X93132134Y-67278500D01*
X93194316Y-67271745D01*
X93330705Y-67220615D01*
X93447261Y-67133261D01*
X93534615Y-67016705D01*
X93585745Y-66880316D01*
X93592500Y-66818134D01*
X93592500Y-65721866D01*
X93585745Y-65659684D01*
X93534615Y-65523295D01*
X93447261Y-65406739D01*
X93330705Y-65319385D01*
X93194316Y-65268255D01*
X93132134Y-65261500D01*
X90035866Y-65261500D01*
X89973684Y-65268255D01*
X89966286Y-65271028D01*
X89963646Y-65271656D01*
X89892746Y-65267953D01*
X89835102Y-65226507D01*
X89809017Y-65160477D01*
X89808500Y-65149073D01*
X89808500Y-64850927D01*
X89828502Y-64782806D01*
X89882158Y-64736313D01*
X89952432Y-64726209D01*
X89963646Y-64728344D01*
X89966286Y-64728972D01*
X89973684Y-64731745D01*
X90035866Y-64738500D01*
X93132134Y-64738500D01*
X93194316Y-64731745D01*
X93330705Y-64680615D01*
X93447261Y-64593261D01*
X93534615Y-64476705D01*
X93537769Y-64468293D01*
X93546401Y-64445269D01*
X93589043Y-64388505D01*
X93655605Y-64363806D01*
X93664382Y-64363500D01*
X93715405Y-64363500D01*
X93783526Y-64383502D01*
G37*
%TD.AperFunction*%
%TD*%
M02*
