%TF.GenerationSoftware,KiCad,Pcbnew,(6.0.4-0)*%
%TF.CreationDate,2023-01-17T00:41:14-07:00*%
%TF.ProjectId,Gamecube_SD2SP2PRO,47616d65-6375-4626-955f-534432535032,rev?*%
%TF.SameCoordinates,Original*%
%TF.FileFunction,Copper,L2,Bot*%
%TF.FilePolarity,Positive*%
%FSLAX46Y46*%
G04 Gerber Fmt 4.6, Leading zero omitted, Abs format (unit mm)*
G04 Created by KiCad (PCBNEW (6.0.4-0)) date 2023-01-17 00:41:14*
%MOMM*%
%LPD*%
G01*
G04 APERTURE LIST*
%TA.AperFunction,ViaPad*%
%ADD10C,0.800000*%
%TD*%
%TA.AperFunction,Conductor*%
%ADD11C,0.250000*%
%TD*%
G04 APERTURE END LIST*
D10*
%TO.N,GND*%
X101100000Y-62780569D03*
X108400000Y-98399585D03*
X76500000Y-68733739D03*
X82880000Y-98499585D03*
X102020000Y-98499585D03*
X95640000Y-62780569D03*
X108400000Y-92446416D03*
X98697560Y-98200000D03*
X95640000Y-86593247D03*
X81700000Y-80640077D03*
X108400000Y-86493247D03*
X101100000Y-68733739D03*
X76500000Y-86593247D03*
X102020000Y-92546416D03*
X87224879Y-70900000D03*
X102020000Y-86593247D03*
X81700000Y-68733739D03*
X95640000Y-56800000D03*
X89300000Y-93000000D03*
X76500000Y-80640077D03*
X89260000Y-98499585D03*
X76500000Y-56800000D03*
X98397560Y-92500000D03*
X87224879Y-86593247D03*
X108400000Y-80540077D03*
X92900000Y-72400000D03*
X76500000Y-62780569D03*
X95640000Y-74686908D03*
X87224879Y-80640077D03*
X87224879Y-74686908D03*
X95640000Y-68733739D03*
X82880000Y-62780569D03*
X89000000Y-61100000D03*
X89260000Y-56800000D03*
X81700000Y-86593247D03*
X102020000Y-80640077D03*
X82880000Y-56800000D03*
X83500000Y-74800000D03*
X90700000Y-72600000D03*
X81700000Y-74686908D03*
X82880000Y-92546416D03*
X76500000Y-98499585D03*
X95640000Y-80640077D03*
X101100000Y-74686908D03*
X76500000Y-92546416D03*
X76500000Y-74686908D03*
%TO.N,Net-(J2-Pad4)*%
X84300000Y-68300000D03*
X84300000Y-64300000D03*
%TD*%
D11*
%TO.N,Net-(J2-Pad4)*%
X84300000Y-68300000D02*
X84300000Y-64300000D01*
%TD*%
%TA.AperFunction,Conductor*%
%TO.N,GND*%
G36*
X95348835Y-55198502D02*
G01*
X95374586Y-55220452D01*
X101383505Y-61932053D01*
X101559374Y-62128488D01*
X101589910Y-62192582D01*
X101591500Y-62212534D01*
X101591500Y-79771377D01*
X101591498Y-79772147D01*
X101591024Y-79849721D01*
X101593491Y-79858352D01*
X101599150Y-79878153D01*
X101602728Y-79894915D01*
X101606920Y-79924187D01*
X101610634Y-79932355D01*
X101610634Y-79932356D01*
X101617548Y-79947562D01*
X101623996Y-79965086D01*
X101631051Y-79989771D01*
X101635843Y-79997365D01*
X101635844Y-79997368D01*
X101646830Y-80014780D01*
X101654969Y-80029863D01*
X101667208Y-80056782D01*
X101673069Y-80063584D01*
X101683970Y-80076235D01*
X101695073Y-80091239D01*
X101708776Y-80112958D01*
X101715501Y-80118897D01*
X101715504Y-80118901D01*
X101730938Y-80132532D01*
X101742982Y-80144724D01*
X101756427Y-80160327D01*
X101756430Y-80160329D01*
X101762287Y-80167127D01*
X101769816Y-80172007D01*
X101769817Y-80172008D01*
X101783835Y-80181094D01*
X101798709Y-80192385D01*
X101811217Y-80203431D01*
X101817951Y-80209378D01*
X101844711Y-80221942D01*
X101859691Y-80230263D01*
X101876983Y-80241471D01*
X101876988Y-80241473D01*
X101884515Y-80246352D01*
X101893108Y-80248922D01*
X101893113Y-80248924D01*
X101909120Y-80253711D01*
X101926564Y-80260372D01*
X101941676Y-80267467D01*
X101941678Y-80267468D01*
X101949800Y-80271281D01*
X101958667Y-80272662D01*
X101958668Y-80272662D01*
X101968310Y-80274163D01*
X101979017Y-80275830D01*
X101995732Y-80279613D01*
X102015466Y-80285515D01*
X102015472Y-80285516D01*
X102024066Y-80288086D01*
X102033037Y-80288141D01*
X102033038Y-80288141D01*
X102043097Y-80288202D01*
X102058506Y-80288296D01*
X102059289Y-80288329D01*
X102060386Y-80288500D01*
X102091377Y-80288500D01*
X102092147Y-80288502D01*
X102165785Y-80288952D01*
X102165786Y-80288952D01*
X102169721Y-80288976D01*
X102171065Y-80288592D01*
X102172410Y-80288500D01*
X109929786Y-80288500D01*
X109997907Y-80308502D01*
X110044400Y-80362158D01*
X110055786Y-80414500D01*
X110055786Y-100365500D01*
X110035784Y-100433621D01*
X109982128Y-100480114D01*
X109929786Y-100491500D01*
X74698786Y-100491500D01*
X74630665Y-100471498D01*
X74584172Y-100417842D01*
X74572786Y-100365500D01*
X74572786Y-94992750D01*
X105511524Y-94992750D01*
X105529894Y-95194596D01*
X105587119Y-95389029D01*
X105589972Y-95394486D01*
X105589973Y-95394489D01*
X105594127Y-95402435D01*
X105681019Y-95568645D01*
X105684879Y-95573445D01*
X105684879Y-95573446D01*
X105690729Y-95580722D01*
X105808019Y-95726601D01*
X105963281Y-95856881D01*
X105968673Y-95859845D01*
X105968677Y-95859848D01*
X106135494Y-95951556D01*
X106140891Y-95954523D01*
X106334084Y-96015807D01*
X106340201Y-96016493D01*
X106340205Y-96016494D01*
X106414348Y-96024810D01*
X106491817Y-96033500D01*
X106601004Y-96033500D01*
X106751713Y-96018723D01*
X106945742Y-95960142D01*
X107124698Y-95864990D01*
X107281763Y-95736890D01*
X107294246Y-95721801D01*
X107407027Y-95585472D01*
X107407029Y-95585469D01*
X107410956Y-95580722D01*
X107507356Y-95402435D01*
X107567290Y-95208820D01*
X107588476Y-95007250D01*
X107570106Y-94805404D01*
X107512881Y-94610971D01*
X107508951Y-94603452D01*
X107421835Y-94436815D01*
X107418981Y-94431355D01*
X107413630Y-94424699D01*
X107295840Y-94278199D01*
X107291981Y-94273399D01*
X107136719Y-94143119D01*
X107131327Y-94140155D01*
X107131323Y-94140152D01*
X106964506Y-94048444D01*
X106959109Y-94045477D01*
X106765916Y-93984193D01*
X106759799Y-93983507D01*
X106759795Y-93983506D01*
X106685652Y-93975190D01*
X106608183Y-93966500D01*
X106498996Y-93966500D01*
X106348287Y-93981277D01*
X106154258Y-94039858D01*
X105975302Y-94135010D01*
X105818237Y-94263110D01*
X105814310Y-94267857D01*
X105814308Y-94267859D01*
X105692973Y-94414528D01*
X105692971Y-94414531D01*
X105689044Y-94419278D01*
X105592644Y-94597565D01*
X105532710Y-94791180D01*
X105511524Y-94992750D01*
X74572786Y-94992750D01*
X74572786Y-86992750D01*
X105511524Y-86992750D01*
X105529894Y-87194596D01*
X105587119Y-87389029D01*
X105589972Y-87394486D01*
X105589973Y-87394489D01*
X105594127Y-87402435D01*
X105681019Y-87568645D01*
X105684879Y-87573445D01*
X105684879Y-87573446D01*
X105690729Y-87580722D01*
X105808019Y-87726601D01*
X105963281Y-87856881D01*
X105968673Y-87859845D01*
X105968677Y-87859848D01*
X106135494Y-87951556D01*
X106140891Y-87954523D01*
X106334084Y-88015807D01*
X106340201Y-88016493D01*
X106340205Y-88016494D01*
X106414348Y-88024810D01*
X106491817Y-88033500D01*
X106601004Y-88033500D01*
X106751713Y-88018723D01*
X106945742Y-87960142D01*
X107124698Y-87864990D01*
X107281763Y-87736890D01*
X107294246Y-87721801D01*
X107407027Y-87585472D01*
X107407029Y-87585469D01*
X107410956Y-87580722D01*
X107507356Y-87402435D01*
X107567290Y-87208820D01*
X107588476Y-87007250D01*
X107570106Y-86805404D01*
X107512881Y-86610971D01*
X107508951Y-86603452D01*
X107421835Y-86436815D01*
X107418981Y-86431355D01*
X107413630Y-86424699D01*
X107295840Y-86278199D01*
X107291981Y-86273399D01*
X107136719Y-86143119D01*
X107131327Y-86140155D01*
X107131323Y-86140152D01*
X106964506Y-86048444D01*
X106959109Y-86045477D01*
X106765916Y-85984193D01*
X106759799Y-85983507D01*
X106759795Y-85983506D01*
X106685652Y-85975190D01*
X106608183Y-85966500D01*
X106498996Y-85966500D01*
X106348287Y-85981277D01*
X106154258Y-86039858D01*
X105975302Y-86135010D01*
X105818237Y-86263110D01*
X105814310Y-86267857D01*
X105814308Y-86267859D01*
X105692973Y-86414528D01*
X105692971Y-86414531D01*
X105689044Y-86419278D01*
X105592644Y-86597565D01*
X105532710Y-86791180D01*
X105511524Y-86992750D01*
X74572786Y-86992750D01*
X74572786Y-68300000D01*
X83386496Y-68300000D01*
X83406458Y-68489928D01*
X83465473Y-68671556D01*
X83560960Y-68836944D01*
X83688747Y-68978866D01*
X83843248Y-69091118D01*
X83849276Y-69093802D01*
X83849278Y-69093803D01*
X84011681Y-69166109D01*
X84017712Y-69168794D01*
X84111112Y-69188647D01*
X84198056Y-69207128D01*
X84198061Y-69207128D01*
X84204513Y-69208500D01*
X84395487Y-69208500D01*
X84401939Y-69207128D01*
X84401944Y-69207128D01*
X84488888Y-69188647D01*
X84582288Y-69168794D01*
X84588319Y-69166109D01*
X84750722Y-69093803D01*
X84750724Y-69093802D01*
X84756752Y-69091118D01*
X84911253Y-68978866D01*
X85039040Y-68836944D01*
X85134527Y-68671556D01*
X85193542Y-68489928D01*
X85213504Y-68300000D01*
X85193542Y-68110072D01*
X85134527Y-67928444D01*
X85039040Y-67763056D01*
X84965863Y-67681785D01*
X84935147Y-67617779D01*
X84933500Y-67597476D01*
X84933500Y-65002524D01*
X84953502Y-64934403D01*
X84965858Y-64918221D01*
X85039040Y-64836944D01*
X85134527Y-64671556D01*
X85193542Y-64489928D01*
X85213504Y-64300000D01*
X85193542Y-64110072D01*
X85134527Y-63928444D01*
X85039040Y-63763056D01*
X84911253Y-63621134D01*
X84756752Y-63508882D01*
X84750724Y-63506198D01*
X84750722Y-63506197D01*
X84588319Y-63433891D01*
X84588318Y-63433891D01*
X84582288Y-63431206D01*
X84488887Y-63411353D01*
X84401944Y-63392872D01*
X84401939Y-63392872D01*
X84395487Y-63391500D01*
X84204513Y-63391500D01*
X84198061Y-63392872D01*
X84198056Y-63392872D01*
X84111113Y-63411353D01*
X84017712Y-63431206D01*
X84011682Y-63433891D01*
X84011681Y-63433891D01*
X83849278Y-63506197D01*
X83849276Y-63506198D01*
X83843248Y-63508882D01*
X83688747Y-63621134D01*
X83560960Y-63763056D01*
X83465473Y-63928444D01*
X83406458Y-64110072D01*
X83386496Y-64300000D01*
X83406458Y-64489928D01*
X83465473Y-64671556D01*
X83560960Y-64836944D01*
X83634137Y-64918215D01*
X83664853Y-64982221D01*
X83666500Y-65002524D01*
X83666500Y-67597476D01*
X83646498Y-67665597D01*
X83634142Y-67681779D01*
X83560960Y-67763056D01*
X83465473Y-67928444D01*
X83406458Y-68110072D01*
X83386496Y-68300000D01*
X74572786Y-68300000D01*
X74572786Y-55304500D01*
X74592788Y-55236379D01*
X74646444Y-55189886D01*
X74698786Y-55178500D01*
X95280714Y-55178500D01*
X95348835Y-55198502D01*
G37*
%TD.AperFunction*%
%TD*%
M02*
